<svg width="20" height="20" viewBox="0 0 20 20" fill="none" xmlns="http://www.w3.org/2000/svg">
<g id="vuesax/linear/notification-bing">
<g id="notification-bing">
<path id="Vector" d="M12.7754 15.6834C12.7754 17.2084 11.5254 18.4584 10.0004 18.4584C9.24207 18.4584 8.54207 18.1417 8.04207 17.6417C7.54207 17.1417 7.2254 16.4417 7.2254 15.6834M10.0171 1.66669C6.9504 1.66669 4.46707 4.15002 4.46707 7.21669V8.96669C4.46707 9.53335 4.23374 10.3834 3.94207 10.8667L2.88374 12.6334C2.23374 13.725 2.68374 14.9417 3.88374 15.3417C7.86707 16.6667 12.1754 16.6667 16.1587 15.3417C17.2837 14.9667 17.7671 13.65 17.1587 12.6334L16.1004 10.8667C15.8087 10.3834 15.5754 9.52502 15.5754 8.96669V7.21669C15.5671 4.16669 13.0671 1.66669 10.0171 1.66669Z" stroke="white" stroke-width="1.5" stroke-miterlimit="10"/>
</g>
</g>
</svg>
