<svg width="19" height="19" viewBox="0 0 19 19" fill="none" xmlns="http://www.w3.org/2000/svg">
<g clip-path="url(#clip0_4192_28186)">
<path d="M8.31266 1.5862C7.77825 1.59344 7.45742 1.62438 7.19801 1.75656C6.90009 1.90836 6.65787 2.15058 6.50607 2.4485C6.37389 2.70791 6.34295 3.02874 6.33571 3.56315M15.4377 1.5862C15.9721 1.59344 16.2929 1.62438 16.5523 1.75656C16.8502 1.90836 17.0925 2.15058 17.2443 2.4485C17.3764 2.70791 17.4074 3.02873 17.4146 3.56314M17.4146 10.6881C17.4074 11.2226 17.3764 11.5434 17.2443 11.8028C17.0925 12.1007 16.8502 12.3429 16.5523 12.4947C16.2929 12.6269 15.9721 12.6579 15.4377 12.6651M17.4168 6.33398V7.91731M11.0835 1.58398H12.6668M4.11683 17.4173H10.1335C11.0202 17.4173 11.4636 17.4173 11.8023 17.2447C12.1002 17.0929 12.3425 16.8507 12.4943 16.5528C12.6668 16.2141 12.6668 15.7707 12.6668 14.884V8.86732C12.6668 7.98057 12.6668 7.53719 12.4943 7.1985C12.3425 6.90058 12.1002 6.65836 11.8023 6.50656C11.4636 6.33398 11.0202 6.33398 10.1335 6.33398H4.11683C3.23008 6.33398 2.7867 6.33398 2.44801 6.50656C2.15009 6.65836 1.90787 6.90058 1.75607 7.1985C1.5835 7.53719 1.5835 7.98057 1.5835 8.86732V14.884C1.5835 15.7707 1.5835 16.2141 1.75607 16.5528C1.90787 16.8507 2.15009 17.0929 2.44801 17.2447C2.7867 17.4173 3.23008 17.4173 4.11683 17.4173Z" stroke="white" stroke-width="1.58333" stroke-linecap="round" stroke-linejoin="round"/>
</g>
<defs>
<clipPath id="clip0_4192_28186">
<rect width="19" height="19" fill="white"/>
</clipPath>
</defs>
</svg>
