<svg width="14" height="14" viewBox="0 0 14 14" fill="none" xmlns="http://www.w3.org/2000/svg">
<g opacity="0.5">
<path d="M9.33333 9.91668L12.25 7.00002M12.25 7.00002L9.33333 4.08335M12.25 7.00002H5.25M7 9.91668C7 10.0891 7 10.1753 6.99359 10.25C6.92698 11.0262 6.35533 11.6648 5.59127 11.8168C5.51777 11.8314 5.43201 11.8409 5.2607 11.8599L4.66488 11.9261C3.76978 12.0256 3.3222 12.0753 2.96664 11.9615C2.49254 11.8098 2.10549 11.4634 1.90235 11.009C1.75 10.6681 1.75 10.2178 1.75 9.31719V4.68284C1.75 3.78221 1.75 3.3319 1.90235 2.99107C2.10549 2.53663 2.49254 2.1902 2.96664 2.03849C3.32221 1.92471 3.76977 1.97444 4.66488 2.07389L5.2607 2.14009C5.43207 2.15914 5.51775 2.16866 5.59127 2.18327C6.35533 2.33519 6.92698 2.97387 6.99359 3.75004C7 3.82472 7 3.91093 7 4.08335" stroke="white" stroke-width="1.16667" stroke-linecap="round" stroke-linejoin="round"/>
</g>
</svg>
