<svg width="20" height="20" viewBox="0 0 20 20" fill="#24252E" xmlns="http://www.w3.org/2000/svg">
<circle cx="10" cy="10" r="10"/>
<path opacity="0.7" d="M9.75428 8.026C10.2116 8.026 10.5336 8.17067 10.7203 8.46C10.9163 8.74 11.0143 9.118 11.0143 9.594C11.0143 9.83667 10.9909 10.1447 10.9443 10.518C10.8976 10.8913 10.8416 11.288 10.7763 11.708C10.7203 12.128 10.6643 12.5247 10.6083 12.898C10.5616 13.262 10.5383 13.5607 10.5383 13.794C10.5383 13.9527 10.5663 14.0647 10.6223 14.13C10.6783 14.1953 10.7483 14.228 10.8323 14.228C10.9536 14.228 11.0843 14.144 11.2243 13.976C11.3643 13.7987 11.4996 13.486 11.6303 13.038L12.2603 13.22C12.2229 13.416 12.1529 13.6353 12.0503 13.878C11.9476 14.1207 11.8123 14.354 11.6443 14.578C11.4856 14.7927 11.2896 14.9747 11.0563 15.124C10.8229 15.264 10.5569 15.334 10.2583 15.334C9.77295 15.334 9.43228 15.2033 9.23628 14.942C9.04028 14.6807 8.94228 14.312 8.94228 13.836C8.94228 13.5187 8.96561 13.1733 9.01228 12.8C9.06828 12.4173 9.12895 12.0347 9.19428 11.652C9.25961 11.26 9.31561 10.8867 9.36228 10.532C9.40895 10.1773 9.43228 9.86 9.43228 9.58C9.43228 9.43067 9.40895 9.31867 9.36228 9.244C9.31561 9.16933 9.24561 9.132 9.15228 9.132C9.04028 9.132 8.91428 9.22067 8.77428 9.398C8.63428 9.566 8.49895 9.874 8.36828 10.322L7.73828 10.14C7.76628 9.95333 7.83161 9.73867 7.93428 9.496C8.03695 9.25333 8.17228 9.02 8.34028 8.796C8.51761 8.572 8.72295 8.39 8.95628 8.25C9.18961 8.10067 9.45561 8.026 9.75428 8.026ZM10.3563 4.666C10.6269 4.666 10.8509 4.764 11.0283 4.96C11.2056 5.156 11.2849 5.40333 11.2663 5.702C11.2663 5.99133 11.1729 6.234 10.9863 6.43C10.7996 6.626 10.5663 6.724 10.2863 6.724C10.0063 6.724 9.77761 6.626 9.60028 6.43C9.43228 6.234 9.34828 5.99133 9.34828 5.702C9.36695 5.40333 9.47428 5.156 9.67028 4.96C9.86628 4.764 10.0949 4.666 10.3563 4.666Z" fill="#B3B5C0"/>
</svg>
