<svg viewBox="0 0 151 19" fill="none" xmlns="http://www.w3.org/2000/svg">
    <path fill-rule="evenodd" clip-rule="evenodd"
          d="M3.37255 8.99345L0 6.1027L7.22688 0H27.4622L22.6442 4.17553H8.99345L3.37255 8.99345ZM3.37255 9.31514L0 12.2059L7.22688 18.3086H27.4622L22.6442 14.1331H8.99345L3.37255 9.31514Z"
          fill="white"/>
    <path d="M35.6533 0L43.362 6.5407L51.0706 0H57.8157L45.6103 10.3205V18.3081H41.1136V10.3205L28.9082 0H35.6533Z"
          fill="white"/>
    <path fill-rule="evenodd" clip-rule="evenodd"
          d="M59.7422 0H79.6563L84.3136 4.01493V6.90569L82.0193 9.23435L84.3136 11.563V14.775L79.9775 18.4687H59.7422V7.38748H78.6927L80.2987 5.62091L78.2109 3.85434H59.7422V0ZM64.2389 11.0812V14.6144H78.6927L80.6199 12.8478L78.6927 11.0812H64.2389Z"
          fill="white"/>
    <path fill-rule="evenodd" clip-rule="evenodd"
          d="M88.9707 0H109.527L114.184 4.33613V7.22688L109.688 11.4024L116.754 18.3081H110.491L103.103 11.563H93.1462V18.3884H88.9707V7.70868H107.921L109.848 5.94211L107.921 4.17553H88.9707V0Z"
          fill="white"/>
    <path fill-rule="evenodd" clip-rule="evenodd"
          d="M126.329 0L116.555 8.9989L126.329 18.3081H141.224L150.999 8.9989L141.224 0H126.329ZM122.295 8.9989L126.705 13.2825L135.953 4.03399H127.726L122.295 8.9989ZM140.555 4.69874L130.979 14.2741H139.828L145.258 8.9989L140.555 4.69874Z"
          fill="#FBFF3A"/>
</svg>
