<svg width="20" height="21" viewBox="0 0 20 21" fill="none" xmlns="http://www.w3.org/2000/svg">
<g id="Icon-20/warning-circle">
<path id="Vector" fill-rule="evenodd" clip-rule="evenodd" d="M20 10.4464C20 15.9693 15.5228 20.4464 10 20.4464C4.47715 20.4464 0 15.9693 0 10.4464C0 4.92356 4.47715 0.446411 10 0.446411C15.5228 0.446411 20 4.92356 20 10.4464ZM10 18.3036C14.3394 18.3036 17.8571 14.7858 17.8571 10.4464C17.8571 6.10703 14.3394 2.58927 10 2.58927C5.66062 2.58927 2.14286 6.10703 2.14286 10.4464C2.14286 14.7858 5.66062 18.3036 10 18.3036Z" fill="white" fill-opacity="0.6"/>
<g id="Vector_2">
<path d="M8.59961 16.4677H11.4004V8.62625H8.59961V16.4677Z" fill="white" fill-opacity="0.6"/>
<path d="M8.59961 7.22586H11.4004V4.42508H8.59961V7.22586Z" fill="white" fill-opacity="0.6"/>
</g>
</g>
</svg>
