<svg width="14" height="14" viewBox="0 0 14 14" fill="none" xmlns="http://www.w3.org/2000/svg">
<g id="vuesax/linear/setting-2">
<g id="setting-2">
<path id="Vector" d="M7 5.25C7.9665 5.25 8.75 6.0335 8.75 7C8.75 7.9665 7.9665 8.75 7 8.75C6.0335 8.75 5.25 7.9665 5.25 7C5.25 6.0335 6.0335 5.25 7 5.25Z" stroke="white" stroke-width="1.05" stroke-miterlimit="10" stroke-linecap="round" stroke-linejoin="round"/>
<path id="Vector_2" d="M1.16602 6.48674V7.51341C1.16602 8.12008 1.66185 8.62174 2.27435 8.62174C3.33018 8.62174 3.76185 9.36841 3.23102 10.2842C2.92768 10.8092 3.10852 11.4917 3.63935 11.7951L4.64852 12.3726C5.10935 12.6467 5.70435 12.4834 5.97852 12.0226L6.04268 11.9117C6.56768 10.9959 7.43102 10.9959 7.96185 11.9117L8.02602 12.0226C8.30018 12.4834 8.89518 12.6467 9.35602 12.3726L10.3652 11.7951C10.896 11.4917 11.0768 10.8092 10.7735 10.2842C10.2427 9.36841 10.6743 8.62174 11.7302 8.62174C12.3368 8.62174 12.8385 8.12591 12.8385 7.51341V6.48674C12.8385 5.88008 12.3427 5.37841 11.7302 5.37841C10.6743 5.37841 10.2427 4.63175 10.7735 3.71591C11.0768 3.18508 10.896 2.50841 10.3652 2.20508L9.35602 1.62758C8.89518 1.35341 8.30018 1.51674 8.02602 1.97758L7.96185 2.08841C7.43685 3.00424 6.57352 3.00424 6.04268 2.08841L5.97852 1.97758C5.70435 1.51674 5.10935 1.35341 4.64852 1.62758L3.63935 2.20508C3.10852 2.50841 2.92768 3.19091 3.23102 3.71591C3.76185 4.63175 3.33018 5.37841 2.27435 5.37841C1.66185 5.37841 1.16602 5.88008 1.16602 6.48674Z" stroke="white" stroke-width="1.05" stroke-miterlimit="10" stroke-linecap="round" stroke-linejoin="round"/>
</g>
</g>
</svg>
