<svg width="24" height="24" viewBox="0 0 24 24" fill="none" xmlns="http://www.w3.org/2000/svg">
<g id="vuesax/linear/star">
<g id="star">
<path id="Icon" d="M11.2827 3.83735C11.5131 3.37041 11.6284 3.13694 11.7848 3.06235C11.9209 2.99745 12.0791 2.99745 12.2152 3.06235C12.3717 3.13694 12.4869 3.37041 12.7174 3.83735L14.9041 8.26732C14.9721 8.40517 15.0061 8.47409 15.0558 8.52761C15.0999 8.57499 15.1527 8.61338 15.2113 8.64065C15.2776 8.67146 15.3536 8.68257 15.5057 8.70481L20.397 9.41974C20.9121 9.49502 21.1696 9.53267 21.2888 9.65847C21.3925 9.76792 21.4412 9.91833 21.4215 10.0678C21.3988 10.2396 21.2124 10.4212 20.8395 10.7844L17.3014 14.2305C17.1912 14.3379 17.136 14.3916 17.1004 14.4555C17.0689 14.5121 17.0487 14.5742 17.0409 14.6385C17.0321 14.7112 17.0451 14.787 17.0711 14.9388L17.906 19.8061C17.994 20.3195 18.038 20.5762 17.9553 20.7285C17.8833 20.8611 17.7554 20.954 17.6071 20.9815C17.4366 21.0131 17.2061 20.8919 16.7451 20.6494L12.3724 18.3499C12.2361 18.2782 12.168 18.2424 12.0962 18.2283C12.0327 18.2159 11.9673 18.2159 11.9038 18.2283C11.832 18.2424 11.7639 18.2782 11.6277 18.3499L7.25492 20.6494C6.79392 20.8919 6.56341 21.0131 6.39297 20.9815C6.24468 20.954 6.11672 20.8611 6.04474 20.7285C5.962 20.5762 6.00603 20.3195 6.09407 19.8061L6.92889 14.9388C6.95491 14.787 6.96793 14.7112 6.95912 14.6385C6.95132 14.5742 6.93111 14.5121 6.89961 14.4555C6.86402 14.3916 6.80888 14.3379 6.69859 14.2305L3.16056 10.7844C2.78766 10.4212 2.60121 10.2396 2.57853 10.0678C2.55879 9.91833 2.60755 9.76792 2.71125 9.65847C2.83044 9.53267 3.08797 9.49502 3.60304 9.41974L8.49431 8.70481C8.64642 8.68257 8.72248 8.67146 8.78872 8.64065C8.84736 8.61338 8.90016 8.57499 8.94419 8.52761C8.99391 8.47409 9.02793 8.40517 9.09597 8.26732L11.2827 3.83735Z" stroke="currentColor" stroke-width="1.5" stroke-linecap="round" stroke-linejoin="round"/>
</g>
</g>
</svg>
