<svg viewBox="0 0 46 40" fill="none" xmlns="http://www.w3.org/2000/svg">
<ellipse cx="19.7143" cy="20" rx="19.7143" ry="20" fill="#22A079"/>
<path fill-rule="evenodd" clip-rule="evenodd" d="M22.3829 13.402V16.7257L22.3864 16.7293C28.3639 17.0135 32.8575 18.2401 32.8575 19.7042C32.8575 21.1718 28.3639 22.3948 22.3864 22.679V33.3337H17.0603V22.679C11.0758 22.3912 6.57178 21.1682 6.57178 19.7006C6.57178 18.2329 11.0723 17.0099 17.0603 16.7257V13.402H9.6929V8.33366H29.7503V13.402H22.3829ZM22.383 21.7647V21.7683V21.7719C27.6604 21.5273 31.6001 20.5777 31.6001 19.441C31.6001 18.3043 27.6638 17.3547 22.383 17.11V20.8223C22.2297 20.8367 21.4077 20.9086 19.7635 20.9086C18.3945 20.9086 17.4018 20.8475 17.0569 20.8223V17.1065C11.7691 17.3475 7.81893 18.3007 7.81893 19.4374C7.81893 20.5777 11.7656 21.5273 17.0569 21.7683V21.7647C17.3983 21.7827 18.3632 21.8223 19.7391 21.8223C21.4599 21.8223 22.2332 21.7755 22.383 21.7647Z" fill="white"/>
<ellipse cx="34.5" cy="28.333" rx="11.5" ry="11.6667" fill="#EB0029"/>
<path fill-rule="evenodd" clip-rule="evenodd" d="M39.204 23.6882L27.791 21.5265L33.7973 37.0821L42.166 26.5877L39.204 23.6882ZM39.0203 24.6414L40.7661 26.3492L35.9911 27.2392L39.0203 24.6414ZM29.9211 22.7635L34.9541 27.0597L38.147 24.3213L29.9211 22.7635ZM34.5957 27.8212L33.7753 34.8043L29.3505 23.3433L34.5957 27.8212ZM40.643 27.2048L35.3556 28.1904L34.5781 34.8101L40.643 27.2048Z" fill="white"/>
</svg>
