<svg width="14" height="14" viewBox="0 0 14 14" fill="none" xmlns="http://www.w3.org/2000/svg">
<g id="vuesax/bold/tick-circle">
<g id="tick-circle">
<path id="Vector" d="M7.00033 1.16797C3.78616 1.16797 1.16699 3.78714 1.16699 7.0013C1.16699 10.2155 3.78616 12.8346 7.00033 12.8346C10.2145 12.8346 12.8337 10.2155 12.8337 7.0013C12.8337 3.78714 10.2145 1.16797 7.00033 1.16797ZM9.78866 5.65964L6.48116 8.96714C6.39949 9.0488 6.28866 9.09547 6.17199 9.09547C6.05533 9.09547 5.94449 9.0488 5.86283 8.96714L4.21199 7.3163C4.04283 7.14714 4.04283 6.86714 4.21199 6.69797C4.38116 6.5288 4.66116 6.5288 4.83033 6.69797L6.17199 8.03964L9.17033 5.0413C9.33949 4.87214 9.61949 4.87214 9.78866 5.0413C9.95783 5.21047 9.95783 5.48464 9.78866 5.65964Z" fill="#04E000"/>
</g>
</g>
</svg>
