<svg width="1294" height="626" viewBox="0 0 1294 626" fill="none" xmlns="http://www.w3.org/2000/svg">
<mask id="mask0_6064_25137" style="mask-type:alpha" maskUnits="userSpaceOnUse" x="0" y="0" width="1294" height="626">
<path d="M52 0H1294V551.119L1239 626H0V72.8574L52 0Z" fill="url(#paint0_linear_6064_25137)"/>
</mask>
<g mask="url(#mask0_6064_25137)">
<g opacity="0.6" clip-path="url(#clip0_6064_25137)">
<path d="M-74.1418 53.7117H29.7735V157.627H-74.1418V53.7117Z" stroke="#FFEF92" stroke-width="1.4235"/>
<path d="M29.7733 53.7117H133.689V157.627H29.7733V53.7117Z" stroke="#FFEF92" stroke-width="1.4235"/>
<path d="M133.689 53.7117H237.604V157.627H133.689V53.7117Z" stroke="#FFEF92" stroke-width="1.4235"/>
<path d="M237.604 53.7117H341.519V157.627H237.604V53.7117Z" stroke="#FFEF92" stroke-width="1.4235"/>
<path d="M341.519 53.7117H445.435V157.627H341.519V53.7117Z" stroke="#FFEF92" stroke-width="1.4235"/>
<path d="M445.434 53.7117H549.35V157.627H445.434V53.7117Z" stroke="#FFEF92" stroke-width="1.4235"/>
<path d="M549.35 53.7117H653.265V157.627H549.35V53.7117Z" stroke="#FFEF92" stroke-width="1.4235"/>
<path d="M653.265 53.7117H757.18V157.627H653.265V53.7117Z" stroke="#FFEF92" stroke-width="1.4235"/>
<path d="M757.18 53.7117H861.096V157.627H757.18V53.7117Z" stroke="#FFEF92" stroke-width="1.4235"/>
<path d="M861.096 53.7117H965.011V157.627H861.096V53.7117Z" stroke="#FFEF92" stroke-width="1.4235"/>
<path d="M965.011 53.7117H1068.93V157.627H965.011V53.7117Z" stroke="#FFEF92" stroke-width="1.4235"/>
<path d="M1068.93 53.7117H1172.84V157.627H1068.93V53.7117Z" stroke="#FFEF92" stroke-width="1.4235"/>
<path d="M1172.84 53.7117H1276.76V157.627H1172.84V53.7117Z" stroke="#FFEF92" stroke-width="1.4235"/>
<path d="M1276.76 53.7117H1380.67V157.627H1276.76V53.7117Z" stroke="#FFEF92" stroke-width="1.4235"/>
<path d="M-74.1418 157.627H29.7735V261.543H-74.1418V157.627Z" stroke="#FFEF92" stroke-width="1.4235"/>
<path d="M29.7733 157.627H133.689V261.543H29.7733V157.627Z" stroke="#FFEF92" stroke-width="1.4235"/>
<path d="M133.689 157.627H237.604V261.543H133.689V157.627Z" stroke="#FFEF92" stroke-width="1.4235"/>
<path d="M237.604 157.627H341.519V261.543H237.604V157.627Z" stroke="#FFEF92" stroke-width="1.4235"/>
<path d="M341.519 157.627H445.435V261.543H341.519V157.627Z" stroke="#FFEF92" stroke-width="1.4235"/>
<path d="M445.434 157.627H549.35V261.543H445.434V157.627Z" stroke="#FFEF92" stroke-width="1.4235"/>
<path d="M549.35 157.627H653.265V261.543H549.35V157.627Z" stroke="#FFEF92" stroke-width="1.4235"/>
<path d="M653.265 157.627H757.18V261.543H653.265V157.627Z" stroke="#FFEF92" stroke-width="1.4235"/>
<path d="M757.18 157.627H861.096V261.543H757.18V157.627Z" stroke="#FFEF92" stroke-width="1.4235"/>
<path d="M861.096 157.627H965.011V261.543H861.096V157.627Z" stroke="#FFEF92" stroke-width="1.4235"/>
<path d="M965.011 157.627H1068.93V261.543H965.011V157.627Z" stroke="#FFEF92" stroke-width="1.4235"/>
<path d="M1068.93 157.627H1172.84V261.543H1068.93V157.627Z" stroke="#FFEF92" stroke-width="1.4235"/>
<path d="M1172.84 157.627H1276.76V261.543H1172.84V157.627Z" stroke="#FFEF92" stroke-width="1.4235"/>
<path d="M1276.76 157.627H1380.67V261.543H1276.76V157.627Z" stroke="#FFEF92" stroke-width="1.4235"/>
<path d="M-74.1418 261.542H29.7735V365.458H-74.1418V261.542Z" stroke="#FFEF92" stroke-width="1.4235"/>
<path d="M29.7733 261.542H133.689V365.458H29.7733V261.542Z" stroke="#FFEF92" stroke-width="1.4235"/>
<path d="M133.689 261.542H237.604V365.458H133.689V261.542Z" stroke="#FFEF92" stroke-width="1.4235"/>
<path d="M237.604 261.542H341.519V365.458H237.604V261.542Z" stroke="#FFEF92" stroke-width="1.4235"/>
<path d="M341.519 261.542H445.435V365.458H341.519V261.542Z" stroke="#FFEF92" stroke-width="1.4235"/>
<path d="M445.434 261.542H549.35V365.458H445.434V261.542Z" stroke="#FFEF92" stroke-width="1.4235"/>
<path d="M549.35 261.542H653.265V365.458H549.35V261.542Z" stroke="#FFEF92" stroke-width="1.4235"/>
<path d="M653.265 261.542H757.18V365.458H653.265V261.542Z" stroke="#FFEF92" stroke-width="1.4235"/>
<path d="M757.18 261.542H861.096V365.458H757.18V261.542Z" stroke="#FFEF92" stroke-width="1.4235"/>
<path d="M861.096 261.542H965.011V365.458H861.096V261.542Z" stroke="#FFEF92" stroke-width="1.4235"/>
<path d="M965.011 261.542H1068.93V365.458H965.011V261.542Z" stroke="#FFEF92" stroke-width="1.4235"/>
<path d="M1068.93 261.542H1172.84V365.458H1068.93V261.542Z" stroke="#FFEF92" stroke-width="1.4235"/>
<path d="M1172.84 261.542H1276.76V365.458H1172.84V261.542Z" stroke="#FFEF92" stroke-width="1.4235"/>
<path d="M1276.76 261.542H1380.67V365.458H1276.76V261.542Z" stroke="#FFEF92" stroke-width="1.4235"/>
<path d="M-74.1418 365.458H29.7735V469.373H-74.1418V365.458Z" stroke="#FFEF92" stroke-width="1.4235"/>
<path d="M29.7733 365.458H133.689V469.373H29.7733V365.458Z" stroke="#FFEF92" stroke-width="1.4235"/>
<path d="M133.689 365.458H237.604V469.373H133.689V365.458Z" stroke="#FFEF92" stroke-width="1.4235"/>
<path d="M237.604 365.458H341.519V469.373H237.604V365.458Z" stroke="#FFEF92" stroke-width="1.4235"/>
<path d="M341.519 365.458H445.435V469.373H341.519V365.458Z" stroke="#FFEF92" stroke-width="1.4235"/>
<path d="M445.434 365.458H549.35V469.373H445.434V365.458Z" stroke="#FFEF92" stroke-width="1.4235"/>
<path d="M549.35 365.458H653.265V469.373H549.35V365.458Z" stroke="#FFEF92" stroke-width="1.4235"/>
<path d="M653.265 365.458H757.18V469.373H653.265V365.458Z" stroke="#FFEF92" stroke-width="1.4235"/>
<path d="M757.18 365.458H861.096V469.373H757.18V365.458Z" stroke="#FFEF92" stroke-width="1.4235"/>
<path d="M861.096 365.458H965.011V469.373H861.096V365.458Z" stroke="#FFEF92" stroke-width="1.4235"/>
<path d="M965.011 365.458H1068.93V469.373H965.011V365.458Z" stroke="#FFEF92" stroke-width="1.4235"/>
<path d="M1068.93 365.458H1172.84V469.373H1068.93V365.458Z" stroke="#FFEF92" stroke-width="1.4235"/>
<path d="M1172.84 365.458H1276.76V469.373H1172.84V365.458Z" stroke="#FFEF92" stroke-width="1.4235"/>
<path d="M1276.76 365.458H1380.67V469.373H1276.76V365.458Z" stroke="#FFEF92" stroke-width="1.4235"/>
<path d="M-74.1418 469.373H29.7735V573.288H-74.1418V469.373Z" stroke="#FFEF92" stroke-width="1.4235"/>
<path d="M29.7733 469.373H133.689V573.288H29.7733V469.373Z" stroke="#FFEF92" stroke-width="1.4235"/>
<path d="M133.689 469.373H237.604V573.288H133.689V469.373Z" stroke="#FFEF92" stroke-width="1.4235"/>
<path d="M237.604 469.373H341.519V573.288H237.604V469.373Z" stroke="#FFEF92" stroke-width="1.4235"/>
<path d="M341.519 469.373H445.435V573.288H341.519V469.373Z" stroke="#FFEF92" stroke-width="1.4235"/>
<path d="M445.434 469.373H549.35V573.288H445.434V469.373Z" stroke="#FFEF92" stroke-width="1.4235"/>
<path d="M549.35 469.373H653.265V573.288H549.35V469.373Z" stroke="#FFEF92" stroke-width="1.4235"/>
<path d="M653.265 469.373H757.18V573.288H653.265V469.373Z" stroke="#FFEF92" stroke-width="1.4235"/>
<path d="M757.18 469.373H861.096V573.288H757.18V469.373Z" stroke="#FFEF92" stroke-width="1.4235"/>
<path d="M861.096 469.373H965.011V573.288H861.096V469.373Z" stroke="#FFEF92" stroke-width="1.4235"/>
<path d="M965.011 469.373H1068.93V573.288H965.011V469.373Z" stroke="#FFEF92" stroke-width="1.4235"/>
<path d="M1068.93 469.373H1172.84V573.288H1068.93V469.373Z" stroke="#FFEF92" stroke-width="1.4235"/>
<path d="M1172.84 469.373H1276.76V573.288H1172.84V469.373Z" stroke="#FFEF92" stroke-width="1.4235"/>
<path d="M1276.76 469.373H1380.67V573.288H1276.76V469.373Z" stroke="#FFEF92" stroke-width="1.4235"/>
<path d="M-74.1418 573.288H29.7735V677.204H-74.1418V573.288Z" stroke="#FFEF92" stroke-width="1.4235"/>
<path d="M29.7733 573.288H133.689V677.204H29.7733V573.288Z" stroke="#FFEF92" stroke-width="1.4235"/>
<path d="M133.689 573.288H237.604V677.204H133.689V573.288Z" stroke="#FFEF92" stroke-width="1.4235"/>
<path d="M237.604 573.288H341.519V677.204H237.604V573.288Z" stroke="#FFEF92" stroke-width="1.4235"/>
<path d="M341.519 573.288H445.435V677.204H341.519V573.288Z" stroke="#FFEF92" stroke-width="1.4235"/>
<path d="M445.434 573.288H549.35V677.204H445.434V573.288Z" stroke="#FFEF92" stroke-width="1.4235"/>
<path d="M549.35 573.288H653.265V677.204H549.35V573.288Z" stroke="#FFEF92" stroke-width="1.4235"/>
<path d="M653.265 573.288H757.18V677.204H653.265V573.288Z" stroke="#FFEF92" stroke-width="1.4235"/>
<path d="M757.18 573.288H861.096V677.204H757.18V573.288Z" stroke="#FFEF92" stroke-width="1.4235"/>
<path d="M861.096 573.288H965.011V677.204H861.096V573.288Z" stroke="#FFEF92" stroke-width="1.4235"/>
<path d="M965.011 573.288H1068.93V677.204H965.011V573.288Z" stroke="#FFEF92" stroke-width="1.4235"/>
<path d="M1068.93 573.288H1172.84V677.204H1068.93V573.288Z" stroke="#FFEF92" stroke-width="1.4235"/>
<path d="M1172.84 573.288H1276.76V677.204H1172.84V573.288Z" stroke="#FFEF92" stroke-width="1.4235"/>
<path d="M1276.76 573.288H1380.67V677.204H1276.76V573.288Z" stroke="#FFEF92" stroke-width="1.4235"/>
</g>
</g>
<defs>
<linearGradient id="paint0_linear_6064_25137" x1="0" y1="313" x2="1294" y2="313" gradientUnits="userSpaceOnUse">
<stop stop-color="#F0D025"/>
<stop offset="0.504179" stop-color="#FFF627"/>
<stop offset="1" stop-color="#F0D025"/>
</linearGradient>
<clipPath id="clip0_6064_25137">
<rect width="2108.2" height="521" fill="white" transform="translate(-386.6 53)"/>
</clipPath>
</defs>
</svg>
