<svg width="129" height="27" viewBox="0 0 129 27" fill="none" xmlns="http://www.w3.org/2000/svg">
    <g id="QuillAudits_Logo_(Horizontal) blue 1" clip-path="url(#clip0_2142_190726)">
        <path id="Vector" d="M47.8556 14.7548C47.8556 16.617 47.1762 18.1687 45.8178 19.4101L47.2758 20.9033H45.607L44.8516 20.1304C43.8796 20.7276 42.8371 21.0263 41.7246 21.0263C40.1436 21.0263 38.7207 20.429 37.4559 19.2344C36.2028 18.0282 35.5762 16.535 35.5762 14.7548C35.5762 12.9747 36.2028 11.4874 37.4559 10.2928C38.7207 9.08653 40.1436 8.4834 41.7246 8.4834C43.3408 8.4834 44.7638 9.08068 45.9934 10.2752C47.2349 11.4698 47.8556 12.963 47.8556 14.7548ZM41.7246 19.6385C42.5094 19.6385 43.2179 19.4628 43.8503 19.1115L41.2503 16.4413H42.9192L44.834 18.4088C45.8178 17.4602 46.3097 16.2422 46.3097 14.7548C46.3097 13.3261 45.8587 12.1549 44.957 11.2414C44.0668 10.3162 42.9895 9.85363 41.7246 9.85363C40.5301 9.85363 39.4643 10.3162 38.5274 11.2414C37.6022 12.1666 37.1396 13.3378 37.1396 14.7548C37.1396 16.1602 37.6022 17.3255 38.5274 18.2507C39.4643 19.1759 40.5301 19.6385 41.7246 19.6385ZM57.2508 11.7684H58.6562V20.9033H57.2508V18.6899C57.1339 19.1935 56.7825 19.7088 56.1968 20.2358C55.6113 20.7628 54.8735 21.0263 53.9833 21.0263C52.9996 21.0263 52.1857 20.7101 51.5415 20.0777C50.8975 19.4453 50.5753 18.4673 50.5753 17.144V11.7684H51.9807V17.1088C51.9807 18.034 52.1799 18.7133 52.578 19.1466C52.9762 19.5799 53.515 19.7966 54.1941 19.7966C54.9555 19.7966 55.6171 19.5038 56.1792 18.9182C56.7414 18.321 57.0987 17.6768 57.2508 16.9859V11.7684ZM63.1219 8.60637V9.9239H61.6989V8.60637H63.1219ZM63.1219 11.7684V20.9033H61.6989V11.7684H63.1219ZM67.7208 8.60637V20.9033H66.2978V8.60637H67.7208ZM72.236 8.60637V20.9033H70.8131V8.60637H72.236ZM84.7619 20.9033L83.2335 17.4777H77.7526L76.2243 20.9033H74.6608L80.335 8.60637H80.6512L86.3078 20.9033H84.7619ZM78.2972 16.248H82.689L80.4931 11.2941L78.2972 16.248ZM95.1815 11.7684H96.5869V20.9033H95.1815V18.6899C95.0643 19.1935 94.713 19.7088 94.1275 20.2358C93.5417 20.7628 92.8039 21.0263 91.914 21.0263C90.9303 21.0263 90.1162 20.7101 89.4722 20.0777C88.828 19.4453 88.506 18.4673 88.506 17.144V11.7684H89.9114V17.1088C89.9114 18.034 90.1104 18.7133 90.5087 19.1466C90.9067 19.5799 91.4455 19.7966 92.1248 19.7966C92.886 19.7966 93.5478 19.5038 94.1099 18.9182C94.6721 18.321 95.0292 17.6768 95.1815 16.9859V11.7684ZM106.691 8.60637H108.097V20.9033H106.691V19.1115C106.445 19.6736 106.035 20.1362 105.462 20.4993C104.888 20.8506 104.25 21.0263 103.547 21.0263C102.446 21.0263 101.45 20.6105 100.56 19.779C99.6703 18.9475 99.2253 17.7998 99.2253 16.3359C99.2253 15.5863 99.3598 14.9071 99.6294 14.2981C99.8987 13.6774 100.244 13.1855 100.666 12.8225C101.087 12.4477 101.544 12.1608 102.036 11.9617C102.539 11.7626 103.043 11.663 103.547 11.663C104.261 11.663 104.905 11.8329 105.479 12.1725C106.053 12.5121 106.457 12.9572 106.691 13.5076V8.60637ZM101.579 18.8831C102.212 19.4921 102.926 19.7966 103.723 19.7966C104.519 19.7966 105.221 19.5038 105.831 18.9182C106.439 18.321 106.744 17.4602 106.744 16.3359C106.744 15.2116 106.439 14.3566 105.831 13.7711C105.221 13.1855 104.519 12.8927 103.723 12.8927C102.926 12.8927 102.212 13.1972 101.579 13.8062C100.947 14.4152 100.631 15.2584 100.631 16.3359C100.631 17.4133 100.947 18.2624 101.579 18.8831ZM112.464 8.60637V9.9239H111.041V8.60637H112.464ZM112.464 11.7684V20.9033H111.041V11.7684H112.464ZM118.363 19.779C118.761 19.779 119.165 19.6853 119.575 19.498V20.6925C119.153 20.9033 118.632 21.0087 118.012 21.0087C116.829 21.0087 116.237 20.3587 116.237 19.0588V12.9279H115.113V11.7684H116.237V10.1874H117.643V11.7684H119.558V12.9279H117.643V18.9358C117.643 19.498 117.883 19.779 118.363 19.779ZM126.784 13.9468C126.374 13.2207 125.765 12.8576 124.957 12.8576C124.512 12.8576 124.149 12.9747 123.868 13.2089C123.599 13.4315 123.464 13.7067 123.464 14.0346C123.464 14.3391 123.558 14.5967 123.745 14.8075C123.944 15.0183 124.284 15.2057 124.764 15.3697L125.695 15.7035C126.597 16.0197 127.27 16.3652 127.715 16.7399C128.16 17.1147 128.383 17.6651 128.383 18.3912C128.383 19.1876 128.037 19.8259 127.346 20.306C126.655 20.7862 125.882 21.0263 125.027 21.0263C124.219 21.0263 123.482 20.8096 122.814 20.3763C122.146 19.943 121.713 19.3633 121.514 18.6372L122.744 18.3034C122.896 18.7601 123.189 19.129 123.622 19.4101C124.055 19.6795 124.524 19.8142 125.027 19.8142C125.519 19.8142 125.958 19.6853 126.345 19.4277C126.731 19.1583 126.925 18.8128 126.925 18.3912C126.925 18.0282 126.802 17.7295 126.556 17.4953C126.31 17.2611 125.935 17.0561 125.431 16.8805L124.377 16.5115C123.534 16.2071 122.931 15.8674 122.568 15.4927C122.205 15.1179 122.023 14.6377 122.023 14.0522C122.023 13.3729 122.305 12.8049 122.867 12.3482C123.441 11.8914 124.132 11.663 124.94 11.663C126.404 11.663 127.446 12.313 128.067 13.613L126.784 13.9468Z" fill="white"/>
        <path id="Vector_2" d="M27.7847 15.3394L15.7714 26.9333L14.709 25.2946L26.0684 13.9874V13.9465L17.2832 5.01543L17.937 3.17188L28.3159 13.8645L27.7847 15.3394Z" fill="white"/>
        <path id="Vector_3" fill-rule="evenodd" clip-rule="evenodd" d="M9.07031 18.9861C9.19289 18.5764 9.35634 18.2077 9.51977 17.839C10.2144 16.4051 11.1542 15.1351 12.1758 13.947C13.5242 12.4312 15.0361 11.0793 16.7522 9.97312C17.4877 9.4815 18.2641 9.07182 19.1222 8.78506C19.163 8.74408 19.2448 8.74408 19.3265 8.70312L18.8361 9.31763C18.305 9.97312 17.7329 10.6286 17.2834 11.366C17.2426 11.448 17.2017 11.448 17.12 11.448C16.7931 11.5299 16.4253 11.6118 16.0576 11.6118C16.1802 11.7757 16.3845 11.8576 16.5479 11.9396C16.6296 11.9806 16.7931 11.9806 16.8339 12.1035C16.8339 12.1854 16.7114 12.3083 16.6705 12.3902C16.5888 12.5951 16.4253 12.718 16.221 12.7589C15.8942 12.8409 15.5672 12.9228 15.1995 12.9228C15.1995 13.0048 15.2404 13.0048 15.2812 13.0457C15.4855 13.2096 15.7307 13.3325 15.9759 13.4144C16.0576 13.4554 16.0576 13.4964 16.0167 13.5783C15.935 13.7832 15.7715 13.8651 15.5672 13.906C15.0361 14.0699 14.5049 14.1928 13.9737 14.2338H13.9328C14.0554 14.3567 14.178 14.4386 14.3006 14.5206C14.5457 14.6435 14.7909 14.7254 15.0769 14.8073C15.1178 14.8073 15.1586 14.8483 15.1178 14.8893C14.9135 15.1761 14.7092 15.4629 14.4231 15.6677C14.2188 15.8725 13.9736 15.8725 13.6876 15.8725H12.7478C12.5027 15.8725 12.2575 15.8725 12.0123 15.9135C11.808 15.9544 11.6446 16.0364 11.522 16.2003C11.1134 16.6509 10.8682 17.2245 10.5822 17.757L10.4596 18.0028C10.3779 18.3306 10.1736 18.4945 9.88752 18.6174C9.64237 18.6583 9.35634 18.8222 9.07031 18.9861Z" fill="white"/>
        <path id="Vector_4" opacity="0.98" d="M0.490336 12.3488L12.5036 0.713867L13.566 2.35259L2.20651 13.7007V13.7417L11.0325 22.6318L10.3788 24.4753L0 13.8236L0.490336 12.3488Z" fill="white"/>
    </g>
    <defs>
        <clipPath id="clip0_2142_190726">
            <rect width="129" height="26.2195" fill="white" transform="translate(0 0.713867)"/>
        </clipPath>
    </defs>
</svg>