<svg width="18" height="19" viewBox="0 0 18 19" fill="none" xmlns="http://www.w3.org/2000/svg">
<g id="shield-tick">
<path id="Icon" d="M6.75 9.449L8.25 10.949L11.625 7.574M15 9.824C15 13.5053 10.9845 16.1828 9.52349 17.0352C9.35745 17.132 9.27443 17.1805 9.15726 17.2056C9.06633 17.2251 8.93367 17.2251 8.84274 17.2056C8.72557 17.1805 8.64255 17.132 8.47651 17.0352C7.01547 16.1828 3 13.5053 3 9.824V6.2372C3 5.63757 3 5.33775 3.09807 5.08003C3.18471 4.85236 3.32549 4.64921 3.50824 4.48815C3.71512 4.30583 3.99585 4.20056 4.5573 3.99001L8.57865 2.48201C8.73457 2.42353 8.81253 2.3943 8.89274 2.38271C8.96388 2.37243 9.03612 2.37243 9.10726 2.38271C9.18747 2.3943 9.26543 2.42353 9.42135 2.48201L13.4427 3.99001C14.0042 4.20056 14.2849 4.30583 14.4918 4.48815C14.6745 4.64921 14.8153 4.85236 14.9019 5.08003C15 5.33775 15 5.63757 15 6.2372V9.824Z" stroke="white" stroke-width="1.5" stroke-linecap="round" stroke-linejoin="round"/>
</g>
</svg>
