<svg width="20" height="20" viewBox="0 0 20 20" fill="none" xmlns="http://www.w3.org/2000/svg">
<g id="vuesax/linear/copy">
<g id="copy">
<path id="Vector" d="M13.3327 10.7493V14.2493C13.3327 17.166 12.166 18.3327 9.24935 18.3327H5.74935C2.83268 18.3327 1.66602 17.166 1.66602 14.2493V10.7493C1.66602 7.83268 2.83268 6.66602 5.74935 6.66602H9.24935C12.166 6.66602 13.3327 7.83268 13.3327 10.7493Z" stroke="white" stroke-width="1.5" stroke-linecap="round" stroke-linejoin="round"/>
<path id="Vector_2" d="M18.3327 5.74935V9.24935C18.3327 12.166 17.166 13.3327 14.2493 13.3327H13.3327V10.7493C13.3327 7.83268 12.166 6.66602 9.24935 6.66602H6.66602V5.74935C6.66602 2.83268 7.83268 1.66602 10.7493 1.66602H14.2493C17.166 1.66602 18.3327 2.83268 18.3327 5.74935Z" stroke="white" stroke-width="1.5" stroke-linecap="round" stroke-linejoin="round"/>
</g>
</g>
</svg>
