<svg viewBox="0 0 24 24" fill="none" xmlns="http://www.w3.org/2000/svg">
<rect width="24" height="24" rx="6" fill="black"/>
<path d="M14.793 5.33398H9.20634C6.77967 5.33398 5.33301 6.78065 5.33301 9.20732V14.7873C5.33301 17.2207 6.77967 18.6673 9.20634 18.6673H14.7863C17.213 18.6673 18.6597 17.2207 18.6597 14.794V9.20732C18.6663 6.78065 17.2197 5.33398 14.793 5.33398ZM15.253 11.6873C15.253 11.9473 15.0463 12.154 14.7863 12.154C14.5263 12.154 14.3197 11.9473 14.3197 11.6873V11.5673L12.5063 13.3807C12.4063 13.4807 12.273 13.5273 12.133 13.514C11.993 13.5007 11.8663 13.4273 11.793 13.3073L11.113 12.294L9.52634 13.8807C9.43301 13.974 9.31967 14.014 9.19967 14.014C9.07967 14.014 8.95967 13.9673 8.87301 13.8807C8.69301 13.7007 8.69301 13.4073 8.87301 13.2207L10.8597 11.234C10.9597 11.134 11.093 11.0873 11.233 11.1007C11.373 11.114 11.4997 11.1873 11.573 11.3073L12.253 12.3207L13.6597 10.914H13.5397C13.2797 10.914 13.073 10.7073 13.073 10.4473C13.073 10.1873 13.2797 9.98065 13.5397 9.98065H14.7797C14.8397 9.98065 14.8997 9.99398 14.9597 10.014C15.073 10.0607 15.1663 10.154 15.213 10.2673C15.2397 10.3273 15.2463 10.3873 15.2463 10.4473V11.6873H15.253Z" fill="#FBFF3A"/>
</svg>
