<svg viewBox="0 0 24 24" fill="none" xmlns="http://www.w3.org/2000/svg">
<rect width="24" height="24" rx="6" fill="black"/>
<path d="M16.7796 8.4257C16.493 6.97904 15.4196 6.3457 13.9263 6.3457H8.07298C6.31298 6.3457 5.13965 7.2257 5.13965 9.27904V12.7124C5.13965 14.1924 5.74631 15.059 6.74631 15.4324C6.89298 15.4857 7.05298 15.5324 7.21965 15.559C7.48631 15.619 7.77298 15.6457 8.07298 15.6457H13.933C15.693 15.6457 16.8663 14.7657 16.8663 12.7124V9.27904C16.8663 8.9657 16.8396 8.6857 16.7796 8.4257ZM7.68632 11.999C7.68632 12.2724 7.45965 12.499 7.18632 12.499C6.91298 12.499 6.68632 12.2724 6.68632 11.999V9.99904C6.68632 9.7257 6.91298 9.49904 7.18632 9.49904C7.45965 9.49904 7.68632 9.7257 7.68632 9.99904V11.999ZM10.9996 12.759C10.0263 12.759 9.23965 11.9724 9.23965 10.999C9.23965 10.0257 10.0263 9.23904 10.9996 9.23904C11.973 9.23904 12.7596 10.0257 12.7596 10.999C12.7596 11.9724 11.973 12.759 10.9996 12.759ZM15.3063 11.999C15.3063 12.2724 15.0796 12.499 14.8063 12.499C14.533 12.499 14.3063 12.2724 14.3063 11.999V9.99904C14.3063 9.7257 14.533 9.49904 14.8063 9.49904C15.0796 9.49904 15.3063 9.7257 15.3063 9.99904V11.999Z" fill="#FBFF3A"/>
<path d="M18.8665 11.2808V14.7142C18.8665 16.7675 17.6932 17.6542 15.9265 17.6542H10.0732C9.57318 17.6542 9.12651 17.5808 8.73985 17.4342C8.42651 17.3208 8.15318 17.1542 7.93318 16.9408C7.81318 16.8275 7.90651 16.6475 8.07318 16.6475H13.9265C16.3932 16.6475 17.8598 15.1808 17.8598 12.7208V9.28084C17.8598 9.12084 18.0398 9.02084 18.1532 9.14084C18.6065 9.62084 18.8665 10.3208 18.8665 11.2808Z" fill="#FBFF3A"/>
</svg>
