<svg width="74" height="38" viewBox="0 0 74 38" fill="none" xmlns="http://www.w3.org/2000/svg">
<g clip-path="url(#clip0_4711_99173)">
<path d="M3 3H35V35H3V3Z" fill="#41479B"/>
<path d="M35 30.8334L23.1667 19L35 7.16667V3H30.8333L19 14.8334L7.16666 3H3V7.16667L14.8333 19L3 30.8334V35H7.16672L19 23.1667L30.8333 35H35V30.8334Z" fill="white"/>
<path fill-rule="evenodd" clip-rule="evenodd" d="M3.00391 4.67083V3H4.66641L18.9997 17.3334L33.3331 3H34.9997L35.5997 4.06666L20.6664 19L35.5997 33.9334L34.9998 35H33.333L18.9997 20.6667L4.66646 35H3.00391V33.3292L17.3331 19L3.00391 4.67083Z" fill="#DC251C"/>
<path fill-rule="evenodd" clip-rule="evenodd" d="M15 13.6667V3H23V13.6667H35V24.3333H23V35H15V24.3333H3V13.6667H15Z" fill="white"/>
<path fill-rule="evenodd" clip-rule="evenodd" d="M17 16.3333V3H21V16.3333H35V21.6667H21V35H17V21.6667H3V16.3333H17Z" fill="#DC251C"/>
</g>
<rect x="1.5" y="1.5" width="35" height="35" rx="17.5" stroke="#020206" stroke-width="3"/>
<g clip-path="url(#clip1_4711_99173)">
<path d="M37 35C45.8366 35 53 27.8366 53 19C53 10.1634 45.8366 3 37 3C28.1634 3 21 10.1634 21 19C21 27.8366 28.1634 35 37 35Z" fill="#F0F0F0"/>
<path d="M36.0117 18.8434H53C53 17.3853 52.8042 15.9727 52.4392 14.6289H36.0117V18.8434Z" fill="#D80027"/>
<path d="M36.0117 10.4137H50.6105C49.6139 8.79996 48.3396 7.37353 46.8539 6.19922H36.0117V10.4137Z" fill="#D80027"/>
<path d="M36.7222 34.9984C40.5538 34.9984 44.0756 33.6842 46.8566 31.4863H26.5879C29.3689 33.6842 32.8907 34.9984 36.7222 34.9984Z" fill="#D80027"/>
<path d="M22.8287 27.2712H50.6106C51.4107 25.9756 52.0312 24.5595 52.4393 23.0566H21C21.4081 24.5595 22.0286 25.9756 22.8287 27.2712Z" fill="#D80027"/>
<path d="M28.4115 5.49863H29.8696L28.5133 6.48394L29.0314 8.07825L27.6752 7.09294L26.319 8.07825L26.7665 6.70094C25.5724 7.69562 24.5257 8.861 23.6632 10.1595H24.1304L23.2671 10.7867C23.1326 11.0111 23.0036 11.239 22.88 11.4703L23.2922 12.7391L22.5231 12.1803C22.3319 12.5854 22.1571 12.9996 21.9999 13.4224L22.4541 14.8204H24.1304L22.7742 15.8057L23.2922 17.4L21.9361 16.4147L21.1237 17.0049C21.0424 17.6586 21 18.3243 21 19H37C37 10.1635 37 9.12175 37 3C33.8393 3 30.8928 3.91688 28.4115 5.49863ZM29.0314 17.4L27.6752 16.4147L26.319 17.4L26.8371 15.8057L25.4808 14.8204H27.1572L27.6752 13.2261L28.1932 14.8204H29.8696L28.5133 15.8057L29.0314 17.4ZM28.5133 11.1448L29.0314 12.7391L27.6752 11.7538L26.319 12.7391L26.8371 11.1448L25.4808 10.1595H27.1572L27.6752 8.56519L28.1932 10.1595H29.8696L28.5133 11.1448ZM34.7705 17.4L33.4143 16.4147L32.0581 17.4L32.5762 15.8057L31.2199 14.8204H32.8963L33.4143 13.2261L33.9323 14.8204H35.6087L34.2524 15.8057L34.7705 17.4ZM34.2524 11.1448L34.7705 12.7391L33.4143 11.7538L32.0581 12.7391L32.5762 11.1448L31.2199 10.1595H32.8963L33.4143 8.56519L33.9323 10.1595H35.6087L34.2524 11.1448ZM34.2524 6.48394L34.7705 8.07825L33.4143 7.09294L32.0581 8.07825L32.5762 6.48394L31.2199 5.49863H32.8963L33.4143 3.90431L33.9323 5.49863H35.6087L34.2524 6.48394Z" fill="#0052B4"/>
</g>
<rect x="19.5" y="1.5" width="35" height="35" rx="17.5" stroke="#020206" stroke-width="3"/>
<g clip-path="url(#clip2_4711_99173)">
<rect x="39" y="3" width="32" height="32" fill="#41479B"/>
<path d="M60.243 5.84967C60.2797 5.77534 60.3857 5.77534 60.4224 5.84967L61.0931 7.2088C61.1077 7.23832 61.1359 7.25877 61.1684 7.26351L62.6683 7.48145C62.7503 7.49337 62.7831 7.59417 62.7237 7.65202L61.6384 8.70996C61.6148 8.73293 61.6041 8.76603 61.6096 8.79847L61.8659 10.2923C61.8799 10.374 61.7941 10.4363 61.7208 10.3977L60.3792 9.69243C60.3501 9.67712 60.3153 9.67712 60.2861 9.69243L58.9446 10.3977C58.8712 10.4363 58.7855 10.374 58.7995 10.2923L59.0557 8.79847C59.0613 8.76604 59.0505 8.73293 59.027 8.70996L57.9416 7.65202C57.8823 7.59417 57.915 7.49337 57.997 7.48145L59.4969 7.26351C59.5295 7.25877 59.5577 7.23832 59.5722 7.2088L60.243 5.84967Z" fill="#FFD018"/>
<path d="M60.243 27.1817C60.2797 27.1074 60.3857 27.1074 60.4224 27.1817L61.0931 28.5408C61.1077 28.5703 61.1359 28.5908 61.1684 28.5955L62.6683 28.8135C62.7503 28.8254 62.7831 28.9262 62.7237 28.9841L61.6384 30.042C61.6148 30.065 61.6041 30.0981 61.6096 30.1305L61.8659 31.6243C61.8799 31.706 61.7941 31.7683 61.7208 31.7298L60.3792 31.0245C60.3501 31.0091 60.3153 31.0091 60.2861 31.0245L58.9446 31.7298C58.8712 31.7683 58.7855 31.706 58.7995 31.6243L59.0557 30.1305C59.0613 30.0981 59.0505 30.065 59.027 30.042L57.9416 28.9841C57.8823 28.9262 57.915 28.8254 57.997 28.8135L59.4969 28.5955C59.5295 28.5908 59.5577 28.5703 59.5722 28.5408L60.243 27.1817Z" fill="#FFD018"/>
<path d="M49.577 16.5137C49.6137 16.4394 49.7197 16.4394 49.7563 16.5137L50.4271 17.8729C50.4417 17.9024 50.4698 17.9228 50.5024 17.9276L52.0023 18.1455C52.0843 18.1574 52.1171 18.2582 52.0577 18.3161L50.9724 19.374C50.9488 19.397 50.9381 19.4301 50.9436 19.4625L51.1998 20.9564C51.2139 21.0381 51.1281 21.1004 51.0547 21.0618L49.7132 20.3565C49.6841 20.3412 49.6493 20.3412 49.6201 20.3565L48.2786 21.0618C48.2052 21.1004 48.1195 21.0381 48.1335 20.9564L48.3897 19.4625C48.3953 19.4301 48.3845 19.397 48.3609 19.374L47.2756 18.3161C47.2163 18.2582 47.249 18.1574 47.331 18.1455L48.8309 17.9276C48.8635 17.9228 48.8917 17.9024 48.9062 17.8729L49.577 16.5137Z" fill="#FFD018"/>
<path d="M70.911 16.5137C70.9477 16.4394 71.0536 16.4394 71.0903 16.5137L71.7611 17.8729C71.7757 17.9024 71.8038 17.9228 71.8364 17.9276L73.3363 18.1455C73.4183 18.1574 73.4511 18.2582 73.3917 18.3161L72.3064 19.374C72.2828 19.397 72.2721 19.4301 72.2776 19.4625L72.5338 20.9564C72.5478 21.0381 72.4621 21.1004 72.3887 21.0618L71.0472 20.3565C71.0181 20.3412 70.9832 20.3412 70.9541 20.3565L69.6126 21.0618C69.5392 21.1004 69.4535 21.0381 69.4675 20.9564L69.7237 19.4625C69.7293 19.4301 69.7185 19.397 69.6949 19.374L68.6096 18.3161C68.5502 18.2582 68.583 18.1574 68.665 18.1455L70.1649 17.9276C70.1975 17.9228 70.2256 17.9024 70.2402 17.8729L70.911 16.5137Z" fill="#FFD018"/>
<path d="M65.577 7.2774C65.6137 7.20308 65.7197 7.20308 65.7563 7.2774L66.4271 8.63654C66.4417 8.66605 66.4698 8.68651 66.5024 8.69124L68.0023 8.90919C68.0843 8.92111 68.1171 9.0219 68.0577 9.07976L66.9724 10.1377C66.9488 10.1607 66.9381 10.1938 66.9436 10.2262L67.1998 11.72C67.2139 11.8017 67.1281 11.864 67.0547 11.8255L65.7132 11.1202C65.6841 11.1049 65.6493 11.1049 65.6201 11.1202L64.2786 11.8255C64.2052 11.864 64.1195 11.8017 64.1335 11.72L64.3897 10.2262C64.3953 10.1938 64.3845 10.1607 64.3609 10.1377L63.2756 9.07976C63.2163 9.0219 63.249 8.92111 63.331 8.90919L64.8309 8.69124C64.8635 8.68651 64.8917 8.66605 64.9062 8.63654L65.577 7.2774Z" fill="#FFD018"/>
<path d="M54.911 25.752C54.9477 25.6777 55.0536 25.6777 55.0903 25.752L55.7611 27.1111C55.7757 27.1407 55.8038 27.1611 55.8364 27.1658L57.3363 27.3838C57.4183 27.3957 57.4511 27.4965 57.3917 27.5544L56.3064 28.6123C56.2828 28.6353 56.272 28.6684 56.2776 28.7008L56.5338 30.1947C56.5478 30.2763 56.4621 30.3386 56.3887 30.3001L55.0472 29.5948C55.0181 29.5795 54.9832 29.5795 54.9541 29.5948L53.6126 30.3001C53.5392 30.3386 53.4535 30.2763 53.4675 30.1947L53.7237 28.7008C53.7293 28.6684 53.7185 28.6353 53.6949 28.6123L52.6096 27.5544C52.5502 27.4965 52.583 27.3957 52.665 27.3838L54.1649 27.1658C54.1975 27.1611 54.2256 27.1407 54.2402 27.1111L54.911 25.752Z" fill="#FFD018"/>
<path d="M51.0047 11.1817C51.0414 11.1074 51.1474 11.1074 51.1841 11.1817L51.8548 12.5408C51.8694 12.5703 51.8976 12.5908 51.9301 12.5955L53.43 12.8135C53.5121 12.8254 53.5448 12.9262 53.4855 12.9841L52.4001 14.042C52.3766 14.065 52.3658 14.0981 52.3714 14.1305L52.6276 15.6243C52.6416 15.706 52.5558 15.7683 52.4825 15.7298L51.1409 15.0245C51.1118 15.0091 51.077 15.0091 51.0479 15.0245L49.7063 15.7298C49.633 15.7683 49.5472 15.706 49.5612 15.6243L49.8174 14.1305C49.823 14.0981 49.8122 14.065 49.7887 14.042L48.7033 12.9841C48.644 12.9262 48.6767 12.8254 48.7588 12.8135L50.2587 12.5955C50.2912 12.5908 50.3194 12.5703 50.334 12.5408L51.0047 11.1817Z" fill="#FFD018"/>
<path d="M69.4793 21.8497C69.516 21.7753 69.622 21.7753 69.6587 21.8497L70.3295 23.2088C70.344 23.2383 70.3722 23.2588 70.4047 23.2635L71.9046 23.4815C71.9867 23.4934 72.0194 23.5942 71.9601 23.652L70.8747 24.71C70.8512 24.7329 70.8404 24.766 70.846 24.7985L71.1022 26.2923C71.1162 26.374 71.0305 26.4363 70.9571 26.3977L69.6155 25.6924C69.5864 25.6771 69.5516 25.6771 69.5225 25.6924L68.1809 26.3977C68.1076 26.4363 68.0218 26.374 68.0358 26.2923L68.292 24.7985C68.2976 24.766 68.2869 24.7329 68.2633 24.71L67.178 23.652C67.1186 23.5942 67.1514 23.4934 67.2334 23.4815L68.7333 23.2635C68.7658 23.2588 68.794 23.2383 68.8086 23.2088L69.4793 21.8497Z" fill="#FFD018"/>
<path d="M69.4793 11.1817C69.516 11.1074 69.622 11.1074 69.6587 11.1817L70.3295 12.5408C70.344 12.5703 70.3722 12.5908 70.4047 12.5955L71.9046 12.8135C71.9867 12.8254 72.0194 12.9262 71.9601 12.9841L70.8747 14.042C70.8512 14.065 70.8404 14.0981 70.846 14.1305L71.1022 15.6243C71.1162 15.706 71.0305 15.7683 70.9571 15.7298L69.6155 15.0245C69.5864 15.0091 69.5516 15.0091 69.5225 15.0245L68.1809 15.7298C68.1076 15.7683 68.0218 15.706 68.0358 15.6243L68.292 14.1305C68.2976 14.0981 68.2869 14.065 68.2633 14.042L67.178 12.9841C67.1186 12.9262 67.1514 12.8254 67.2334 12.8135L68.7333 12.5955C68.7658 12.5908 68.794 12.5703 68.8086 12.5408L69.4793 11.1817Z" fill="#FFD018"/>
<path d="M51.0047 21.8497C51.0414 21.7753 51.1474 21.7753 51.1841 21.8497L51.8548 23.2088C51.8694 23.2383 51.8976 23.2588 51.9301 23.2635L53.43 23.4815C53.5121 23.4934 53.5448 23.5942 53.4855 23.652L52.4001 24.71C52.3766 24.7329 52.3658 24.766 52.3714 24.7985L52.6276 26.2923C52.6416 26.374 52.5558 26.4363 52.4825 26.3977L51.1409 25.6924C51.1118 25.6771 51.077 25.6771 51.0479 25.6924L49.7063 26.3977C49.633 26.4363 49.5472 26.374 49.5612 26.2923L49.8174 24.7985C49.823 24.766 49.8122 24.7329 49.7887 24.71L48.7033 23.652C48.644 23.5942 48.6767 23.4934 48.7588 23.4815L50.2587 23.2635C50.2912 23.2588 50.3194 23.2383 50.334 23.2088L51.0047 21.8497Z" fill="#FFD018"/>
<path d="M54.911 7.2774C54.9477 7.20308 55.0536 7.20308 55.0903 7.2774L55.7611 8.63654C55.7757 8.66605 55.8038 8.68651 55.8364 8.69124L57.3363 8.90919C57.4183 8.92111 57.4511 9.0219 57.3917 9.07976L56.3064 10.1377C56.2828 10.1607 56.272 10.1938 56.2776 10.2262L56.5338 11.72C56.5478 11.8017 56.4621 11.864 56.3887 11.8255L55.0472 11.1202C55.0181 11.1049 54.9832 11.1049 54.9541 11.1202L53.6126 11.8255C53.5392 11.864 53.4535 11.8017 53.4675 11.72L53.7237 10.2262C53.7293 10.1938 53.7185 10.1607 53.6949 10.1377L52.6096 9.07976C52.5502 9.0219 52.583 8.92111 52.665 8.90919L54.1649 8.69124C54.1975 8.68651 54.2256 8.66605 54.2402 8.63654L54.911 7.2774Z" fill="#FFD018"/>
<path d="M65.577 25.752C65.6137 25.6777 65.7197 25.6777 65.7563 25.752L66.4271 27.1111C66.4417 27.1407 66.4698 27.1611 66.5024 27.1658L68.0023 27.3838C68.0843 27.3957 68.1171 27.4965 68.0577 27.5544L66.9724 28.6123C66.9488 28.6353 66.9381 28.6684 66.9436 28.7008L67.1998 30.1947C67.2139 30.2763 67.1281 30.3386 67.0547 30.3001L65.7132 29.5948C65.6841 29.5795 65.6493 29.5795 65.6201 29.5948L64.2786 30.3001C64.2052 30.3386 64.1195 30.2763 64.1335 30.1947L64.3897 28.7008C64.3953 28.6684 64.3845 28.6353 64.3609 28.6123L63.2756 27.5544C63.2163 27.4965 63.249 27.3957 63.331 27.3838L64.8309 27.1658C64.8635 27.1611 64.8917 27.1407 64.9062 27.1111L65.577 25.752Z" fill="#FFD018"/>
</g>
<rect x="37.5" y="1.5" width="35" height="35" rx="17.5" stroke="#020206" stroke-width="3"/>
<defs>
<clipPath id="clip0_4711_99173">
<rect x="3" y="3" width="32" height="32" rx="16" fill="white"/>
</clipPath>
<clipPath id="clip1_4711_99173">
<rect x="21" y="3" width="32" height="32" rx="16" fill="white"/>
</clipPath>
<clipPath id="clip2_4711_99173">
<rect x="39" y="3" width="32" height="32" rx="16" fill="white"/>
</clipPath>
</defs>
</svg>
