<svg width="48" height="48" viewBox="0 0 48 48" fill="none" xmlns="http://www.w3.org/2000/svg">
<rect x="5" y="4" width="39" height="39" rx="10" fill="#11121A"/>
<path d="M29.832 20.6667C31.2127 20.6667 32.332 19.5475 32.332 18.1667C32.332 16.786 31.2127 15.6667 29.832 15.6667C28.4513 15.6667 27.332 16.786 27.332 18.1667C27.332 19.5475 28.4513 20.6667 29.832 20.6667Z" stroke="#FF3D6C" stroke-width="1.25" stroke-linecap="round" stroke-linejoin="round"/>
<path d="M19.832 24.8333H23.9987" stroke="#FF3D6C" stroke-width="1.25" stroke-linecap="round" stroke-linejoin="round"/>
<path d="M19.832 28.1667H27.332" stroke="#FF3D6C" stroke-width="1.25" stroke-linecap="round" stroke-linejoin="round"/>
<g filter="url(#filter0_d_5871_281218)">
<path d="M25.668 15.6667H21.5013C17.3346 15.6667 15.668 17.3334 15.668 21.5001V26.5001C15.668 30.6667 17.3346 32.3334 21.5013 32.3334H26.5013C30.668 32.3334 32.3346 30.6667 32.3346 26.5001V22.3334" stroke="#FF3D6C" stroke-width="1.25" stroke-linecap="round" stroke-linejoin="round"/>
</g>
<defs>
<filter id="filter0_d_5871_281218" x="0.0429688" y="0.041748" width="47.917" height="47.9167" filterUnits="userSpaceOnUse" color-interpolation-filters="sRGB">
<feFlood flood-opacity="0" result="BackgroundImageFix"/>
<feColorMatrix in="SourceAlpha" type="matrix" values="0 0 0 0 0 0 0 0 0 0 0 0 0 0 0 0 0 0 127 0" result="hardAlpha"/>
<feOffset/>
<feGaussianBlur stdDeviation="7.5"/>
<feColorMatrix type="matrix" values="0 0 0 0 1 0 0 0 0 0.239216 0 0 0 0 0.423529 0 0 0 1 0"/>
<feBlend mode="normal" in2="BackgroundImageFix" result="effect1_dropShadow_5871_281218"/>
<feBlend mode="normal" in="SourceGraphic" in2="effect1_dropShadow_5871_281218" result="shape"/>
</filter>
</defs>
</svg>
