<svg width="48" height="45" viewBox="0 0 48 45" fill="none" xmlns="http://www.w3.org/2000/svg">
<rect x="4" y="2" width="39" height="39" rx="10" fill="#11121A"/>
<g filter="url(#filter0_d_5875_281916)">
<path fill-rule="evenodd" clip-rule="evenodd" d="M16.2277 21.3713C21.0216 19.2827 24.2183 17.9057 25.8177 17.2405C30.3845 15.341 31.3335 15.011 31.952 15.0001C32.088 14.9977 32.3922 15.0314 32.5892 15.1913C32.7556 15.3263 32.8013 15.5087 32.8232 15.6366C32.8451 15.7646 32.8724 16.0562 32.8507 16.284C32.6033 18.8843 31.5324 25.1944 30.9877 28.1067C30.7571 29.339 30.3033 29.7522 29.8638 29.7927C28.9089 29.8805 28.1837 29.1615 27.2588 28.5552C25.8115 27.6065 24.9938 27.0159 23.5889 26.0901C21.9654 25.0202 23.0179 24.4322 23.9431 23.4711C24.1853 23.2196 28.3929 19.3925 28.4743 19.0453C28.4845 19.0019 28.4939 18.8401 28.3978 18.7546C28.3016 18.6691 28.1597 18.6984 28.0573 18.7216C27.9121 18.7546 25.6 20.2828 21.1209 23.3063C20.4647 23.7569 19.8702 23.9765 19.3376 23.965C18.7505 23.9523 17.621 23.633 16.7814 23.3601C15.7515 23.0253 14.9331 22.8483 15.0043 22.2798C15.0414 21.9837 15.4492 21.6809 16.2277 21.3713Z" fill="#3AB7FF"/>
</g>
<defs>
<filter id="filter0_d_5875_281916" x="0" y="0" width="47.8584" height="44.8" filterUnits="userSpaceOnUse" color-interpolation-filters="sRGB">
<feFlood flood-opacity="0" result="BackgroundImageFix"/>
<feColorMatrix in="SourceAlpha" type="matrix" values="0 0 0 0 0 0 0 0 0 0 0 0 0 0 0 0 0 0 127 0" result="hardAlpha"/>
<feOffset/>
<feGaussianBlur stdDeviation="7.5"/>
<feComposite in2="hardAlpha" operator="out"/>
<feColorMatrix type="matrix" values="0 0 0 0 0.227451 0 0 0 0 0.717647 0 0 0 0 1 0 0 0 1 0"/>
<feBlend mode="normal" in2="BackgroundImageFix" result="effect1_dropShadow_5875_281916"/>
<feBlend mode="normal" in="SourceGraphic" in2="effect1_dropShadow_5875_281916" result="shape"/>
</filter>
</defs>
</svg>
