<svg width="20" height="20" viewBox="0 0 20 20" fill="none" xmlns="http://www.w3.org/2000/svg">
<g clip-path="url(#clip0_59_4143)">
<rect x="-4" width="28" height="20" fill="#41479B"/>
<mask id="mask0_59_4143" style="mask-type:alpha" maskUnits="userSpaceOnUse" x="-4" y="0" width="18" height="14">
<rect x="-4" width="17.5" height="13.3333" fill="#C4C4C4"/>
</mask>
<g mask="url(#mask0_59_4143)">
<path d="M15.2451 -2.22266L-5.75488 15.5551" stroke="white" stroke-width="3.57143"/>
<path d="M15.2451 -2.22266L-5.75488 15.5551" stroke="#DC251C" stroke-width="1.07143"/>
<path d="M-5.75488 -2.22253L15.2451 15.5552" stroke="white" stroke-width="3.57143"/>
<path d="M-5.75488 -2.22253L15.2451 15.5552" stroke="#DC251C" stroke-width="1.07143"/>
<path d="M4.75 0V13.3333M-4 6.66667H13.5" stroke="white" stroke-width="4.28571"/>
<path d="M4.75 0V13.3333M-4 6.66667H13.5" stroke="#DC251C" stroke-width="2.85714"/>
</g>
<ellipse cx="17.876" cy="4.16634" rx="0.875" ry="0.833333" fill="white"/>
<ellipse cx="16.127" cy="9.16652" rx="0.875" ry="0.833333" fill="white"/>
<ellipse cx="19.627" cy="10.8333" rx="0.875" ry="0.833333" fill="white"/>
<ellipse cx="17.876" cy="15.8333" rx="0.875" ry="0.833333" fill="white"/>
<path d="M4.76074 13.7373L5.32992 15.0006L6.69589 14.6477L6.03968 15.87L7.17383 16.6932L5.78637 16.9542L5.83467 18.3337L4.76074 17.4367L3.68682 18.3337L3.73512 16.9542L2.34766 16.6932L3.48181 15.87L2.8256 14.6477L4.19156 15.0006L4.76074 13.7373Z" fill="white"/>
</g>
<defs>
<clipPath id="clip0_59_4143">
<rect width="20" height="20" rx="10" fill="white"/>
</clipPath>
</defs>
</svg>
