<svg width="20" height="20" viewBox="0 0 20 20" fill="none" xmlns="http://www.w3.org/2000/svg">
<g clip-path="url(#clip0_59_4492)">
<path d="M0 0H20V20H0V0Z" fill="#3F9C35"/>
<path d="M0 0H20V13.3333H0V0Z" fill="#ED2939"/>
<path d="M0 0H20V6.66667H0V0Z" fill="#00B9E4"/>
<path fill-rule="evenodd" clip-rule="evenodd" d="M9.55469 12C10.2088 12 10.7895 11.686 11.1544 11.2005C10.8548 11.489 10.4475 11.6663 9.9987 11.6663C9.07822 11.6663 8.33203 10.9201 8.33203 9.99967C8.33203 9.0792 9.07822 8.33301 9.9987 8.33301C10.4466 8.33301 10.8532 8.50967 11.1527 8.79712C10.7876 8.31298 10.2077 8 9.55469 8C8.45012 8 7.55469 8.89543 7.55469 10C7.55469 11.1046 8.45012 12 9.55469 12ZM11.9892 9.48652L11.7766 8.88867L11.564 9.48652L10.991 9.21412L11.2634 9.78718L10.6655 9.99978L11.2634 10.2124L10.991 10.7854L11.564 10.513L11.7766 11.1109L11.9892 10.513L12.5623 10.7854L12.2899 10.2124L12.8878 9.99978L12.2899 9.78718L12.5623 9.21412L11.9892 9.48652Z" fill="white"/>
</g>
<defs>
<clipPath id="clip0_59_4492">
<rect width="20" height="20" rx="10" fill="white"/>
</clipPath>
</defs>
</svg>
