<svg width="20" height="20" viewBox="0 0 20 20" fill="none" xmlns="http://www.w3.org/2000/svg">
<g clip-path="url(#clip0_59_4233)">
<rect width="20" height="20" rx="10" fill="#2B9F5A"/>
<path fill-rule="evenodd" clip-rule="evenodd" d="M13.3333 2.5L2.5 10L13.3333 17.5L24.1667 10L13.3333 2.5Z" fill="#FFD018"/>
<path d="M18.333 10C18.333 12.7614 16.0944 15 13.333 15C10.5716 15 8.33301 12.7614 8.33301 10C8.33301 7.23858 10.5716 5 13.333 5C16.0944 5 18.333 7.23858 18.333 10Z" fill="#41479B"/>
<mask id="mask0_59_4233" style="mask-type:alpha" maskUnits="userSpaceOnUse" x="8" y="5" width="11" height="10">
<path d="M18.334 10C18.334 12.7614 16.0954 15 13.334 15C10.5726 15 8.33398 12.7614 8.33398 10C8.33398 7.23858 10.5726 5 13.334 5C16.0954 5 18.334 7.23858 18.334 10Z" fill="#41479B"/>
</mask>
<g mask="url(#mask0_59_4233)">
<path fill-rule="evenodd" clip-rule="evenodd" d="M7.56838 8.95513L7.49997 8.33389C7.43141 7.71266 7.43152 7.71265 7.43165 7.71263L7.43573 7.71219L7.44548 7.71115L7.48081 7.70754C7.51127 7.70451 7.55536 7.70028 7.61196 7.6953C7.72513 7.68533 7.88846 7.6723 8.09293 7.65966C8.50154 7.63441 9.07627 7.61059 9.74463 7.61601C11.0715 7.62679 12.8091 7.75285 14.3532 8.23587C15.8867 8.71554 17.1916 9.45707 18.1089 10.0731C18.5689 10.3821 18.9353 10.6621 19.1882 10.8663C19.3147 10.9685 19.4131 11.0519 19.4809 11.1107C19.5149 11.1401 19.5411 11.1634 19.5595 11.1798L19.5811 11.1993L19.5873 11.205L19.5893 11.2068C19.5894 11.2069 19.5905 11.2079 19.1666 11.6672C18.7428 12.1265 18.7429 12.1266 18.743 12.1267L18.7401 12.1241L18.7256 12.111C18.712 12.0988 18.6907 12.0799 18.6619 12.055C18.6044 12.0051 18.5173 11.9312 18.4029 11.8389C18.1741 11.6541 17.8373 11.3964 17.4119 11.1108C16.5583 10.5375 15.3633 9.86156 13.9801 9.42887C12.6075 8.99953 11.0118 8.87635 9.73448 8.86597C9.10076 8.86083 8.5557 8.88345 8.17004 8.90728C7.97738 8.91919 7.82495 8.93137 7.72165 8.94047C7.67001 8.94502 7.63069 8.9488 7.60479 8.95138L7.57616 8.9543L7.56838 8.95513Z" fill="#F5F8FB"/>
</g>
<path d="M11.6673 12.0837C11.6673 12.3138 11.4808 12.5003 11.2507 12.5003C11.0205 12.5003 10.834 12.3138 10.834 12.0837C10.834 11.8535 11.0205 11.667 11.2507 11.667C11.4808 11.667 11.6673 11.8535 11.6673 12.0837Z" fill="#F5F8FB"/>
<path d="M14.1663 12.9167C14.1663 13.1468 13.9798 13.3333 13.7497 13.3333C13.5196 13.3333 13.333 13.1468 13.333 12.9167C13.333 12.6865 13.5196 12.5 13.7497 12.5C13.9798 12.5 14.1663 12.6865 14.1663 12.9167Z" fill="#F5F8FB"/>
<path d="M15.8333 12.0837C15.8333 12.3138 15.6468 12.5003 15.4167 12.5003C15.1865 12.5003 15 12.3138 15 12.0837C15 11.8535 15.1865 11.667 15.4167 11.667C15.6468 11.667 15.8333 11.8535 15.8333 12.0837Z" fill="#F5F8FB"/>
</g>
<defs>
<clipPath id="clip0_59_4233">
<rect width="20" height="20" rx="10" fill="white"/>
</clipPath>
</defs>
</svg>
