<svg width="20" height="20" viewBox="0 0 20 20" fill="none" xmlns="http://www.w3.org/2000/svg">
<rect width="20" height="20" rx="10" fill="#E31D1C"/>
<path d="M4.99929 2.80273L5.97893 4.78771L8.16948 5.10601L6.58438 6.6511L6.95857 8.83279L4.99929 7.80273L3.04001 8.83279L3.4142 6.6511L1.8291 5.10601L4.01965 4.78771L4.99929 2.80273Z" fill="#FFD018"/>
<path d="M9.37771 0.811523L10.6187 1.71315L10.1447 3.17202H8.61073L8.13672 1.71315L9.37771 0.811523Z" fill="#FFD018"/>
<path d="M13.3443 3.36775L13.5843 4.88281L12.2175 5.5792L11.1329 4.49454L11.8292 3.12778L13.3443 3.36775Z" fill="#FFD018"/>
<path d="M9.37815 11.25L8.13716 10.3484L8.61118 8.8895L10.1451 8.8895L10.6191 10.3484L9.37815 11.25Z" fill="#FFD018"/>
<path d="M13.3451 8.69306L11.8301 8.93303L11.1337 7.56627L12.2184 6.48161L13.5851 7.178L13.3451 8.69306Z" fill="#FFD018"/>
</svg>
