<svg width="20" height="20" viewBox="0 0 20 20" fill="none" xmlns="http://www.w3.org/2000/svg">
<g clip-path="url(#clip0_59_4175)">
<rect width="20" height="20" fill="#41479B"/>
<path d="M13.243 1.84866C13.2797 1.77434 13.3857 1.77434 13.4224 1.84866L13.7992 2.6123C13.8138 2.64182 13.842 2.66227 13.8745 2.66701L14.7173 2.78946C14.7993 2.80138 14.832 2.90218 14.7727 2.96003L14.1629 3.55445C14.1393 3.57742 14.1286 3.61052 14.1341 3.64296L14.2781 4.48228C14.2921 4.56397 14.2063 4.62627 14.133 4.5877L13.3792 4.19143C13.3501 4.17611 13.3153 4.17611 13.2861 4.19143L12.5324 4.5877C12.459 4.62627 12.3733 4.56397 12.3873 4.48228L12.5312 3.64296C12.5368 3.61052 12.5261 3.57742 12.5025 3.55445L11.8927 2.96003C11.8333 2.90218 11.8661 2.80138 11.9481 2.78946L12.7908 2.66701C12.8234 2.66227 12.8516 2.64182 12.8661 2.6123L13.243 1.84866Z" fill="#FFD018"/>
<path d="M13.244 15.1817C13.2807 15.1074 13.3867 15.1074 13.4233 15.1817L13.8002 15.9453C13.8148 15.9749 13.8429 15.9953 13.8755 16L14.7182 16.1225C14.8003 16.1344 14.833 16.2352 14.7737 16.2931L14.1639 16.8875C14.1403 16.9105 14.1295 16.9436 14.1351 16.976L14.279 17.8153C14.2931 17.897 14.2073 17.9593 14.134 17.9207L13.3802 17.5245C13.3511 17.5091 13.3163 17.5091 13.2871 17.5245L12.5334 17.9207C12.46 17.9593 12.3743 17.897 12.3883 17.8153L12.5322 16.976C12.5378 16.9436 12.527 16.9105 12.5035 16.8875L11.8937 16.2931C11.8343 16.2352 11.8671 16.1344 11.9491 16.1225L12.7918 16C12.8244 15.9953 12.8525 15.9749 12.8671 15.9453L13.244 15.1817Z" fill="#FFD018"/>
<path d="M6.57699 8.51471C6.61367 8.44038 6.71966 8.44038 6.75634 8.51471L7.13322 9.27835C7.14779 9.30786 7.17594 9.32832 7.20851 9.33305L8.05124 9.45551C8.13327 9.46743 8.16602 9.56823 8.10667 9.62608L7.49686 10.2205C7.47329 10.2435 7.46254 10.2766 7.4681 10.309L7.61206 11.1483C7.62607 11.23 7.54032 11.2923 7.46696 11.2537L6.7132 10.8575C6.68407 10.8422 6.64926 10.8422 6.62013 10.8575L5.86637 11.2537C5.79301 11.2923 5.70727 11.23 5.72128 11.1483L5.86523 10.309C5.8708 10.2766 5.86004 10.2435 5.83647 10.2205L5.22667 9.62608C5.16732 9.56823 5.20007 9.46743 5.28209 9.45551L6.12482 9.33305C6.15739 9.32832 6.18555 9.30786 6.20011 9.27835L6.57699 8.51471Z" fill="#FFD018"/>
<path d="M19.911 8.51474C19.9477 8.44041 20.0536 8.44041 20.0903 8.51474L20.4672 9.27838C20.4818 9.30789 20.5099 9.32835 20.5425 9.33308L21.3852 9.45554C21.4673 9.46746 21.5 9.56826 21.4407 9.62611L20.8308 10.2205C20.8073 10.2435 20.7965 10.2766 20.8021 10.309L20.946 11.1484C20.9601 11.2301 20.8743 11.2923 20.8009 11.2538L20.0472 10.8575C20.0181 10.8422 19.9832 10.8422 19.9541 10.8575L19.2004 11.2538C19.127 11.2923 19.0413 11.2301 19.0553 11.1484L19.1992 10.309C19.2048 10.2766 19.194 10.2435 19.1705 10.2205L18.5607 9.62611C18.5013 9.56826 18.5341 9.46746 18.6161 9.45554L19.4588 9.33308C19.4914 9.32835 19.5195 9.30789 19.5341 9.27838L19.911 8.51474Z" fill="#FFD018"/>
<path d="M16.577 2.74127C16.6137 2.66694 16.7197 2.66694 16.7563 2.74127L17.1332 3.50491C17.1478 3.53443 17.1759 3.55488 17.2085 3.55962L18.0512 3.68207C18.1333 3.69399 18.166 3.79479 18.1067 3.85264L17.4969 4.44705C17.4733 4.47003 17.4625 4.50313 17.4681 4.53557L17.6121 5.37489C17.6261 5.45658 17.5403 5.51888 17.467 5.48031L16.7132 5.08403C16.6841 5.06872 16.6493 5.06872 16.6201 5.08403L15.8664 5.48031C15.793 5.51888 15.7073 5.45658 15.7213 5.37489L15.8652 4.53557C15.8708 4.50313 15.86 4.47003 15.8365 4.44705L15.2267 3.85264C15.1673 3.79479 15.2001 3.69399 15.2821 3.68207L16.1248 3.55962C16.1574 3.55488 16.1855 3.53443 16.2001 3.50491L16.577 2.74127Z" fill="#FFD018"/>
<path d="M9.91098 14.2882C9.94766 14.2138 10.0536 14.2138 10.0903 14.2882L10.4672 15.0518C10.4818 15.0813 10.5099 15.1018 10.5425 15.1065L11.3852 15.229C11.4673 15.2409 11.5 15.3417 11.4407 15.3995L10.8308 15.994C10.8073 16.0169 10.7965 16.05 10.8021 16.0825L10.946 16.9218C10.9601 17.0035 10.8743 17.0658 10.8009 17.0272L10.0472 16.6309C10.0181 16.6156 9.98325 16.6156 9.95412 16.6309L9.20036 17.0272C9.12699 17.0658 9.04125 17.0035 9.05526 16.9218L9.19922 16.0825C9.20478 16.05 9.19403 16.0169 9.17046 15.994L8.56065 15.3995C8.5013 15.3417 8.53405 15.2409 8.61607 15.229L9.4588 15.1065C9.49137 15.1018 9.51953 15.0813 9.5341 15.0518L9.91098 14.2882Z" fill="#FFD018"/>
<path d="M7.47055 5.1817C7.50723 5.10737 7.61321 5.10737 7.64989 5.1817L8.02678 5.94534C8.04134 5.97486 8.0695 5.99531 8.10207 6.00005L8.9448 6.1225C9.02682 6.13442 9.05957 6.23522 9.00022 6.29307L8.39042 6.88748C8.36685 6.91046 8.35609 6.94356 8.36166 6.976L8.50561 7.81532C8.51962 7.89701 8.43388 7.95931 8.36052 7.92074L7.60676 7.52446C7.57762 7.50915 7.54282 7.50915 7.51369 7.52446L6.75993 7.92074C6.68656 7.95931 6.60082 7.89701 6.61483 7.81532L6.75879 6.976C6.76435 6.94356 6.7536 6.91046 6.73003 6.88748L6.12022 6.29307C6.06087 6.23522 6.09362 6.13442 6.17564 6.1225L7.01837 6.00005C7.05094 5.99531 7.0791 5.97486 7.09367 5.94534L7.47055 5.1817Z" fill="#FFD018"/>
<path d="M19.0164 11.8487C19.0531 11.7743 19.1591 11.7743 19.1958 11.8487L19.5727 12.6123C19.5872 12.6418 19.6154 12.6623 19.648 12.667L20.4907 12.7895C20.5727 12.8014 20.6055 12.9022 20.5461 12.96L19.9363 13.5544C19.9127 13.5774 19.902 13.6105 19.9076 13.643L20.0515 14.4823C20.0655 14.564 19.9798 14.6263 19.9064 14.5877L19.1527 14.1914C19.1235 14.1761 19.0887 14.1761 19.0596 14.1914L18.3058 14.5877C18.2325 14.6263 18.1467 14.564 18.1607 14.4823L18.3047 13.643C18.3102 13.6105 18.2995 13.5774 18.2759 13.5544L17.6661 12.96C17.6068 12.9022 17.6395 12.8014 17.7215 12.7895L18.5643 12.667C18.5968 12.6623 18.625 12.6418 18.6396 12.6123L19.0164 11.8487Z" fill="#FFD018"/>
<path d="M19.0174 5.1817C19.0541 5.10737 19.1601 5.10737 19.1968 5.1817L19.5737 5.94534C19.5882 5.97486 19.6164 5.99531 19.6489 6.00005L20.4917 6.1225C20.5737 6.13442 20.6064 6.23522 20.5471 6.29307L19.9373 6.88748C19.9137 6.91046 19.903 6.94356 19.9085 6.976L20.0525 7.81532C20.0665 7.89701 19.9808 7.95931 19.9074 7.92074L19.1536 7.52446C19.1245 7.50915 19.0897 7.50915 19.0606 7.52446L18.3068 7.92074C18.2334 7.95931 18.1477 7.89701 18.1617 7.81532L18.3057 6.976C18.3112 6.94356 18.3005 6.91046 18.2769 6.88748L17.6671 6.29307C17.6077 6.23522 17.6405 6.13442 17.7225 6.1225L18.5652 6.00005C18.5978 5.99531 18.626 5.97486 18.6405 5.94534L19.0174 5.1817Z" fill="#FFD018"/>
<path d="M7.46957 11.8487C7.50625 11.7743 7.61224 11.7743 7.64892 11.8487L8.0258 12.6123C8.04036 12.6418 8.06852 12.6623 8.10109 12.667L8.94382 12.7895C9.02585 12.8014 9.0586 12.9022 8.99924 12.96L8.38944 13.5544C8.36587 13.5774 8.35512 13.6105 8.36068 13.643L8.50463 14.4823C8.51865 14.564 8.4329 14.6263 8.35954 14.5877L7.60578 14.1914C7.57665 14.1761 7.54184 14.1761 7.51271 14.1914L6.75895 14.5877C6.68559 14.6263 6.59984 14.564 6.61385 14.4823L6.75781 13.643C6.76337 13.6105 6.75262 13.5774 6.72905 13.5544L6.11925 12.96C6.05989 12.9022 6.09264 12.8014 6.17467 12.7895L7.0174 12.667C7.04997 12.6623 7.07812 12.6418 7.09269 12.6123L7.46957 11.8487Z" fill="#FFD018"/>
<path d="M9.91098 2.74127C9.94766 2.66694 10.0536 2.66694 10.0903 2.74127L10.4672 3.50491C10.4818 3.53443 10.5099 3.55488 10.5425 3.55962L11.3852 3.68207C11.4673 3.69399 11.5 3.79479 11.4407 3.85264L10.8308 4.44705C10.8073 4.47003 10.7965 4.50313 10.8021 4.53557L10.946 5.37489C10.9601 5.45658 10.8743 5.51888 10.8009 5.48031L10.0472 5.08403C10.0181 5.06872 9.98325 5.06872 9.95412 5.08403L9.20036 5.48031C9.12699 5.51888 9.04125 5.45658 9.05526 5.37489L9.19922 4.53557C9.20478 4.50313 9.19403 4.47003 9.17046 4.44705L8.56065 3.85264C8.5013 3.79479 8.53405 3.69399 8.61607 3.68207L9.4588 3.55962C9.49137 3.55488 9.51953 3.53443 9.5341 3.50491L9.91098 2.74127Z" fill="#FFD018"/>
<path d="M16.577 14.2881C16.6137 14.2138 16.7197 14.2138 16.7563 14.2881L17.1332 15.0518C17.1478 15.0813 17.1759 15.1018 17.2085 15.1065L18.0512 15.2289C18.1333 15.2409 18.166 15.3417 18.1067 15.3995L17.4969 15.9939C17.4733 16.0169 17.4625 16.05 17.4681 16.0824L17.6121 16.9218C17.6261 17.0035 17.5403 17.0658 17.467 17.0272L16.7132 16.6309C16.6841 16.6156 16.6493 16.6156 16.6201 16.6309L15.8664 17.0272C15.793 17.0658 15.7073 17.0035 15.7213 16.9218L15.8652 16.0824C15.8708 16.05 15.86 16.0169 15.8365 15.9939L15.2267 15.3995C15.1673 15.3417 15.2001 15.2409 15.2821 15.2289L16.1248 15.1065C16.1574 15.1018 16.1855 15.0813 16.2001 15.0518L16.577 14.2881Z" fill="#FFD018"/>
</g>
<defs>
<clipPath id="clip0_59_4175">
<rect width="20" height="20" rx="10" fill="white"/>
</clipPath>
</defs>
</svg>
