<svg width="20" height="20" viewBox="0 0 20 20" fill="none" xmlns="http://www.w3.org/2000/svg">
<g clip-path="url(#clip0_59_4216)">
<path d="M0 0H26.6667V6.66667H0V0Z" fill="#FF8718"/>
<path d="M0 6.66699H26.6667V13.3337H0V6.66699Z" fill="#F5F8FB"/>
<path d="M0 13.333H26.6667V19.9997H0V13.333Z" fill="#2B9F5A"/>
<path d="M14.9993 9.99967C14.9993 10.9201 14.2532 11.6663 13.3327 11.6663C12.4122 11.6663 11.666 10.9201 11.666 9.99967C11.666 9.0792 12.4122 8.33301 13.3327 8.33301C14.2532 8.33301 14.9993 9.0792 14.9993 9.99967Z" fill="#F5F8FB"/>
<path fill-rule="evenodd" clip-rule="evenodd" d="M13.333 9.16667C12.8728 9.16667 12.4997 9.53976 12.4997 10C12.4997 10.4602 12.8728 10.8333 13.333 10.8333C13.7932 10.8333 14.1663 10.4602 14.1663 10C14.1663 9.53976 13.7932 9.16667 13.333 9.16667ZM10.833 10C10.833 8.61929 11.9523 7.5 13.333 7.5C14.7137 7.5 15.833 8.61929 15.833 10C15.833 11.3807 14.7137 12.5 13.333 12.5C11.9523 12.5 10.833 11.3807 10.833 10Z" fill="#41479B"/>
</g>
<defs>
<clipPath id="clip0_59_4216">
<rect width="20" height="20" rx="10" fill="white"/>
</clipPath>
</defs>
</svg>
