<svg width="20" height="20" viewBox="0 0 20 20" fill="none" xmlns="http://www.w3.org/2000/svg">
<g clip-path="url(#clip0_59_4266)">
<rect width="20" height="20" rx="10" fill="#F5F8FB"/>
<rect y="1.66699" width="26.6667" height="3.33333" fill="#41479B"/>
<rect y="15" width="26.6667" height="3.33333" fill="#41479B"/>
<mask id="path-4-inside-1_59_4266" fill="white">
<path d="M13.334 5.71484L17.084 12.1434H9.58398L13.334 5.71484Z"/>
</mask>
<path d="M13.334 5.71484L14.1978 5.21097L13.334 3.73021L12.4702 5.21097L13.334 5.71484ZM17.084 12.1434V13.1434H18.825L17.9478 11.6395L17.084 12.1434ZM9.58398 12.1434L8.72021 11.6395L7.84295 13.1434H9.58398V12.1434ZM12.4702 6.21871L16.2202 12.6473L17.9478 11.6395L14.1978 5.21097L12.4702 6.21871ZM17.084 11.1434H9.58398V13.1434H17.084V11.1434ZM10.4478 12.6473L14.1978 6.21871L12.4702 5.21097L8.72021 11.6395L10.4478 12.6473Z" fill="#41479B" mask="url(#path-4-inside-1_59_4266)"/>
<mask id="path-6-inside-2_59_4266" fill="white">
<path d="M13.334 14.2863L17.084 7.85771H9.58398L13.334 14.2863Z"/>
</mask>
<path d="M13.334 14.2863L14.1978 14.7902L13.334 16.2709L12.4702 14.7902L13.334 14.2863ZM17.084 7.85771V6.85771H18.825L17.9478 8.36159L17.084 7.85771ZM9.58398 7.85771L8.72021 8.36159L7.84295 6.85771H9.58398V7.85771ZM12.4702 13.7824L16.2202 7.35384L17.9478 8.36159L14.1978 14.7902L12.4702 13.7824ZM17.084 8.85771H9.58398V6.85771H17.084V8.85771ZM10.4478 7.35384L14.1978 13.7824L12.4702 14.7902L8.72021 8.36159L10.4478 7.35384Z" fill="#41479B" mask="url(#path-6-inside-2_59_4266)"/>
</g>
<defs>
<clipPath id="clip0_59_4266">
<rect width="20" height="20" rx="10" fill="white"/>
</clipPath>
</defs>
</svg>
