<svg width="20" height="20" viewBox="0 0 20 20" fill="none" xmlns="http://www.w3.org/2000/svg">
<g clip-path="url(#clip0_59_4228)">
<path d="M0 0H20V20H0V0Z" fill="#1A5C35"/>
<path fill-rule="evenodd" clip-rule="evenodd" d="M15.8327 12.2175C14.8405 13.0478 13.5622 13.5476 12.1672 13.5476C9.01079 13.5476 6.45205 10.9889 6.45205 7.83249C6.45205 6.43749 6.95186 5.15922 7.78216 4.16699C5.65133 5.11706 4.16602 7.25384 4.16602 9.73753C4.16602 13.1043 6.89534 15.8337 10.2621 15.8337C12.7459 15.8337 14.8826 14.3483 15.8327 12.2175Z" fill="#F5F8FB"/>
<path d="M13.3327 4.16699L13.994 5.75685L15.7104 5.89445L14.4027 7.01464L14.8022 8.68953L13.3327 7.79199L11.8633 8.68953L12.2628 7.01464L10.9551 5.89445L12.6715 5.75685L13.3327 4.16699Z" fill="#F5F8FB"/>
</g>
<defs>
<clipPath id="clip0_59_4228">
<rect width="20" height="20" rx="10" fill="white"/>
</clipPath>
</defs>
</svg>
