<svg width="20" height="20" viewBox="0 0 20 20" fill="none" xmlns="http://www.w3.org/2000/svg">
<rect width="20" height="20" rx="10" fill="#E31D1C"/>
<path fill-rule="evenodd" clip-rule="evenodd" d="M13.8606 14.3987C12.4481 14.6725 10.9292 14.2624 9.8352 13.1684C8.08515 11.4183 8.08515 8.58093 9.8352 6.83088C10.9292 5.73687 12.4481 5.32675 13.8607 5.60054C11.7884 4.18441 8.93745 4.39611 7.09791 6.23565C5.01913 8.31442 5.01913 11.6848 7.09791 13.7636C8.93742 15.6031 11.7883 15.8148 13.8606 14.3987Z" fill="#F5F8FB"/>
<path d="M15.833 7.5L16.4943 9.08986L18.2106 9.22746L16.9029 10.3476L17.3025 12.0225L15.833 11.125L14.3635 12.0225L14.7631 10.3476L13.4554 9.22746L15.1717 9.08986L15.833 7.5Z" fill="#F5F8FB"/>
</svg>
