<svg width="20" height="20" viewBox="0 0 20 20" fill="none" xmlns="http://www.w3.org/2000/svg">
<g clip-path="url(#clip0_59_4202)">
<path d="M0 0H20V20H0V0Z" fill="#41479B"/>
<path d="M20 17.3959L12.6042 10L20 2.60417V0H17.3958L10 7.39585L2.60417 0H0V2.60417L7.39584 10L0 17.3959V20H2.6042L10 12.6042L17.3958 20H20V17.3959Z" fill="white"/>
<path fill-rule="evenodd" clip-rule="evenodd" d="M0.000976562 1.04247V-0.000335693H1.0415L9.99984 8.95801L18.9582 -0.000335693H19.9998L20.3748 0.666331L11.0415 9.99968L20.3748 19.333L19.9999 19.9997H18.9581L9.99984 11.0414L1.04154 19.9997H0.000976562V18.9569L8.95817 9.99968L0.000976562 1.04247Z" fill="#DC251C"/>
<path fill-rule="evenodd" clip-rule="evenodd" d="M7.5 6.66667V0H12.5V6.66667H20V13.3333H12.5V20H7.5V13.3333H0V6.66667H7.5Z" fill="white"/>
<path fill-rule="evenodd" clip-rule="evenodd" d="M8.75 8.33333V0H11.25V8.33333H20V11.6667H11.25V20H8.75V11.6667H0V8.33333H8.75Z" fill="#DC251C"/>
</g>
<defs>
<clipPath id="clip0_59_4202">
<rect width="20" height="20" rx="10" fill="white"/>
</clipPath>
</defs>
</svg>
