<svg viewBox="0 0 24 24" fill="none" xmlns="http://www.w3.org/2000/svg">
<rect width="24" height="24" rx="6" fill="black"/>
<path d="M13.9003 6.63385V9.16719H12.9003V6.63385C12.9003 6.45385 12.7403 6.36719 12.6337 6.36719C12.6003 6.36719 12.567 6.37385 12.5337 6.38719L7.24699 8.38052C6.89366 8.51385 6.66699 8.84719 6.66699 9.22719V9.67385C6.06033 10.1272 5.66699 10.8539 5.66699 11.6739V9.22719C5.66699 8.43385 6.15366 7.72719 6.89366 7.44719L12.187 5.44719C12.3337 5.39385 12.487 5.36719 12.6337 5.36719C13.3003 5.36719 13.9003 5.90719 13.9003 6.63385Z" fill="#FBFF3A"/>
<path d="M18.3331 13.6673V14.334C18.3331 14.514 18.1931 14.6607 18.0065 14.6673H17.0331C16.6798 14.6673 16.3598 14.4073 16.3331 14.0607C16.3131 13.854 16.3931 13.6607 16.5265 13.5273C16.6465 13.4007 16.8131 13.334 16.9931 13.334H17.9998C18.1931 13.3407 18.3331 13.4873 18.3331 13.6673Z" fill="#FBFF3A"/>
<path d="M16.987 12.6327H17.667C18.0337 12.6327 18.3337 12.3327 18.3337 11.966V11.6727C18.3337 10.2927 17.207 9.16602 15.827 9.16602H8.17366C7.60699 9.16602 7.08699 9.35268 6.66699 9.67268C6.06033 10.126 5.66699 10.8527 5.66699 11.6727V16.1593C5.66699 17.5393 6.79366 18.666 8.17366 18.666H15.827C17.207 18.666 18.3337 17.5393 18.3337 16.1593V16.0327C18.3337 15.666 18.0337 15.366 17.667 15.366H17.087C16.447 15.366 15.8337 14.9727 15.667 14.3527C15.527 13.846 15.6937 13.3593 16.027 13.0327C16.2737 12.7793 16.6137 12.6327 16.987 12.6327ZM13.3337 12.4993H8.66699C8.39366 12.4993 8.16699 12.2727 8.16699 11.9993C8.16699 11.726 8.39366 11.4993 8.66699 11.4993H13.3337C13.607 11.4993 13.8337 11.726 13.8337 11.9993C13.8337 12.2727 13.607 12.4993 13.3337 12.4993Z" fill="#FBFF3A"/>
</svg>
