<svg viewBox="0 0 35 26" fill="none" xmlns="http://www.w3.org/2000/svg">
<path d="M29.2824 2.11381C27.1154 1.13542 24.7916 0.414584 22.3619 0.00173186C22.3176 -0.00623606 22.2734 0.0136762 22.2506 0.0535017C21.9517 0.576534 21.6207 1.25887 21.3889 1.79519C18.7756 1.41022 16.1757 1.41022 13.616 1.79519C13.3841 1.24695 13.041 0.576534 12.7408 0.0535017C12.718 0.015005 12.6738 -0.00490729 12.6296 0.00173186C10.2012 0.413265 7.87738 1.1341 5.70899 2.11381C5.69022 2.12177 5.67413 2.13506 5.66345 2.15231C1.25564 8.63191 0.0481538 14.9522 0.640505 21.1942C0.643185 21.2248 0.660607 21.254 0.684731 21.2725C3.59288 23.374 6.40992 24.6497 9.17465 25.4954C9.21889 25.5086 9.26577 25.4927 9.29393 25.4569C9.94793 24.5781 10.5309 23.6515 11.0308 22.677C11.0603 22.62 11.0321 22.5523 10.9718 22.5297C10.0471 22.1845 9.1666 21.7637 8.31962 21.2858C8.25262 21.2473 8.24726 21.153 8.30889 21.1079C8.48713 20.9765 8.66541 20.8397 8.8356 20.7017C8.86639 20.6765 8.9093 20.6712 8.9455 20.6871C14.5098 23.1868 20.5339 23.1868 26.0325 20.6871C26.0687 20.6698 26.1116 20.6752 26.1438 20.7004C26.314 20.8384 26.4922 20.9765 26.6718 21.1079C26.7334 21.153 26.7294 21.2473 26.6624 21.2858C25.8154 21.773 24.9349 22.1845 24.0089 22.5284C23.9486 22.5509 23.9218 22.62 23.9513 22.677C24.4619 23.6501 25.0448 24.5767 25.6868 25.4555C25.7136 25.4927 25.7618 25.5086 25.8061 25.4954C28.5842 24.6497 31.4012 23.374 34.3094 21.2725C34.3348 21.254 34.3509 21.2261 34.3536 21.1955C35.0625 13.9791 33.1662 7.71063 29.3266 2.15363C29.3173 2.13506 29.3012 2.12177 29.2824 2.11381ZM11.8617 17.3935C10.1865 17.3935 8.8061 15.8802 8.8061 14.0216C8.8061 12.1631 10.1597 10.6498 11.8617 10.6498C13.5771 10.6498 14.9441 12.1764 14.9172 14.0216C14.9172 15.8802 13.5637 17.3935 11.8617 17.3935ZM23.1592 17.3935C21.484 17.3935 20.1037 15.8802 20.1037 14.0216C20.1037 12.1631 21.4572 10.6498 23.1592 10.6498C24.8746 10.6498 26.2416 12.1764 26.2148 14.0216C26.2148 15.8802 24.8746 17.3935 23.1592 17.3935Z" fill="white"/>
</svg>
