<svg width="24" height="24" viewBox="0 0 24 24" fill="white" xmlns="http://www.w3.org/2000/svg">
<g id="Icon-24/discord">
<path id="Vector" d="M19.6239 5.36776C18.2217 4.73468 16.7181 4.26826 15.1459 4.00112C15.1173 3.99596 15.0887 4.00885 15.0739 4.03462C14.8805 4.37305 14.6663 4.81456 14.5163 5.16159C12.8254 4.9125 11.1431 4.9125 9.48679 5.16159C9.33676 4.80685 9.11478 4.37305 8.92053 4.03462C8.90578 4.00971 8.87718 3.99682 8.84855 4.00112C7.27725 4.26741 5.7736 4.73383 4.37052 5.36776C4.35838 5.37291 4.34797 5.38151 4.34106 5.39267C1.48894 9.58535 0.707629 13.675 1.09092 17.7139C1.09265 17.7337 1.10392 17.7526 1.11953 17.7646C3.00127 19.1243 4.82406 19.9498 6.61301 20.497C6.64164 20.5056 6.67197 20.4953 6.69019 20.4721C7.11337 19.9035 7.49059 19.3039 7.81402 18.6734C7.83311 18.6365 7.81489 18.5926 7.77588 18.578C7.17754 18.3547 6.6078 18.0824 6.05975 17.7732C6.0164 17.7483 6.01293 17.6873 6.05281 17.6581C6.16814 17.573 6.2835 17.4845 6.39363 17.3952C6.41355 17.3789 6.44131 17.3755 6.46474 17.3858C10.0652 19.0032 13.9631 19.0032 17.521 17.3858C17.5445 17.3746 17.5722 17.378 17.593 17.3944C17.7032 17.4837 17.8185 17.573 17.9347 17.6581C17.9746 17.6873 17.972 17.7483 17.9286 17.7732C17.3806 18.0884 16.8108 18.3547 16.2116 18.5772C16.1726 18.5918 16.1553 18.6365 16.1744 18.6734C16.5047 19.303 16.882 19.9026 17.2973 20.4712C17.3147 20.4953 17.3459 20.5056 17.3745 20.497C19.1721 19.9498 20.9949 19.1243 22.8766 17.7646C22.8931 17.7526 22.9035 17.7345 22.9053 17.7148C23.364 13.0453 22.1369 8.98923 19.6525 5.39352C19.6465 5.38151 19.6361 5.37291 19.6239 5.36776ZM8.35169 15.2546C7.26771 15.2546 6.37454 14.2754 6.37454 13.0728C6.37454 11.8702 7.25039 10.891 8.35169 10.891C9.46163 10.891 10.3462 11.8788 10.3288 13.0728C10.3288 14.2754 9.45296 15.2546 8.35169 15.2546ZM15.6619 15.2546C14.5779 15.2546 13.6847 14.2754 13.6847 13.0728C13.6847 11.8702 14.5606 10.891 15.6619 10.891C16.7718 10.891 17.6563 11.8788 17.639 13.0728C17.639 14.2754 16.7718 15.2546 15.6619 15.2546Z"/>
</g>
</svg>
