<svg viewBox="0 0 41 41" fill="none" xmlns="http://www.w3.org/2000/svg">
<path d="M39.6016 20.2089C39.6016 25.2697 38.7534 29.3749 37.7069 29.3749C36.6603 29.3749 35.8125 25.2708 35.8125 20.2089C35.8125 15.147 36.6607 11.043 37.7069 11.043C38.7531 11.043 39.6016 15.1466 39.6016 20.2089Z" fill="white"/>
<path d="M34.7668 20.2082C34.7668 25.858 32.3548 30.4399 29.3795 30.4399C26.4042 30.4399 23.9922 25.858 23.9922 20.2082C23.9922 14.5584 26.4038 9.97656 29.3791 9.97656C32.3545 9.97656 34.7664 14.557 34.7664 20.2082" fill="white"/>
<path d="M22.9473 20.2101C22.9473 26.2123 18.1233 31.078 12.173 31.078C6.22274 31.078 1.39844 26.2112 1.39844 20.2101C1.39844 14.209 6.22237 9.3418 12.173 9.3418C18.1237 9.3418 22.9473 14.2079 22.9473 20.2101Z" fill="white"/>
</svg>
