<svg width="24" height="24" viewBox="0 0 24 24" fill="white" xmlns="http://www.w3.org/2000/svg">
<g id="Icon-24/telegram">
<path id="Vector" d="M2.51239 10.7489C8.41795 8.20867 12.3559 6.534 14.3263 5.72489C19.9521 3.4147 21.1211 3.01339 21.883 3.00014C22.0506 2.99723 22.4253 3.03823 22.668 3.23267C22.873 3.39685 22.9294 3.61863 22.9563 3.77429C22.9833 3.92995 23.0169 4.28455 22.9902 4.56163C22.6854 7.7241 21.3662 15.3986 20.6951 18.9406C20.4111 20.4394 19.852 20.9419 19.3107 20.9911C18.3791 21.0757 17.625 20.545 16.7857 19.9542C16.5651 19.799 16.3387 19.6396 16.1015 19.4861C15.1708 18.8838 14.4515 18.4002 13.7303 17.9153C13.0699 17.4713 12.4079 17.0262 11.5807 16.488C9.85925 15.3681 10.5799 14.6822 11.5408 13.7677C11.6963 13.6196 11.8582 13.4656 12.017 13.3027C12.0879 13.23 12.4347 12.9117 12.9236 12.463C14.4919 11.0235 17.5224 8.24191 17.5989 7.92001C17.6115 7.86721 17.6231 7.67036 17.5046 7.56642C17.3862 7.46248 17.2114 7.49802 17.0852 7.52629C16.9064 7.56636 14.0581 9.42501 8.54035 13.1022C7.73187 13.6503 6.99958 13.9174 6.34347 13.9034C5.62016 13.888 4.2288 13.4996 3.19447 13.1677C3.04257 13.1189 2.89439 13.0729 2.75139 13.0286C1.70008 12.7022 0.928043 12.4625 1.00533 11.8539C1.05106 11.4937 1.55341 11.1254 2.51239 10.7489Z"/>
</g>
</svg>
