<svg width="24" height="24" viewBox="0 0 24 24" fill="none" xmlns="http://www.w3.org/2000/svg">
<path d="M11.2896 3.36784C11.5193 2.92574 11.6342 2.70469 11.7881 2.63285C11.9221 2.5703 12.077 2.5703 12.211 2.63285C12.3649 2.70469 12.4798 2.92574 12.7095 3.36784L14.2225 6.28011C14.3216 6.4708 14.3711 6.56615 14.4454 6.62949C14.511 6.68541 14.5899 6.72342 14.6745 6.73984C14.7704 6.75844 14.8758 6.73772 15.0867 6.69628L18.3069 6.06343C18.7958 5.96736 19.0402 5.91933 19.1923 5.99488C19.3248 6.06067 19.4214 6.18174 19.456 6.32553C19.4958 6.49066 19.3946 6.71827 19.1922 7.17349L17.8586 10.1722C17.7713 10.3685 17.7276 10.4667 17.7244 10.5643C17.7216 10.6504 17.7411 10.7359 17.781 10.8122C17.8262 10.8988 17.9082 10.9683 18.072 11.1073L20.5746 13.2304C20.9545 13.5527 21.1445 13.7139 21.1803 13.8799C21.2114 14.0245 21.177 14.1755 21.0862 14.2923C20.9819 14.4263 20.7408 14.4891 20.2587 14.6147L17.0827 15.4417C16.8748 15.4959 16.7708 15.5229 16.6925 15.5813C16.6234 15.6328 16.5688 15.7013 16.534 15.7801C16.4945 15.8694 16.4912 15.9768 16.4847 16.1916L16.3851 19.472C16.37 19.9699 16.3624 20.2189 16.2549 20.3504C16.1613 20.4649 16.0218 20.5321 15.8739 20.5339C15.704 20.536 15.5047 20.3867 15.1059 20.088L12.4791 18.1206C12.3071 17.9918 12.2211 17.9274 12.1267 17.9025C12.0434 17.8806 11.9558 17.8806 11.8724 17.9025C11.778 17.9274 11.692 17.9918 11.52 18.1206L8.8932 20.088C8.49444 20.3867 8.29506 20.536 8.12521 20.5339C7.97731 20.5321 7.8378 20.4649 7.74418 20.3504C7.63667 20.2189 7.62911 19.9699 7.61399 19.472L7.51439 16.1916C7.50787 15.9768 7.50461 15.8694 7.46514 15.7801C7.43031 15.7013 7.37569 15.6328 7.30658 15.5813C7.22829 15.5229 7.12432 15.4959 6.91636 15.4417L3.74042 14.6147C3.2583 14.4891 3.01724 14.4263 2.91295 14.2923C2.82214 14.1755 2.78768 14.0245 2.81884 13.8799C2.85463 13.7139 3.04458 13.5527 3.42448 13.2304L5.92706 11.1073C6.09093 10.9683 6.17286 10.8988 6.21808 10.8122C6.258 10.7359 6.27749 10.6504 6.27467 10.5643C6.27148 10.4667 6.22782 10.3685 6.1405 10.1722L4.80694 7.17349C4.6045 6.71827 4.50328 6.49066 4.54309 6.32553C4.57775 6.18174 4.6743 6.06067 4.80677 5.99488C4.95891 5.91933 5.20333 5.96736 5.69219 6.06343L8.91245 6.69628C9.1233 6.73772 9.22873 6.75844 9.32458 6.73984C9.40919 6.72342 9.48812 6.68541 9.55371 6.62949C9.62802 6.56615 9.67755 6.4708 9.77662 6.28011L11.2896 3.36784Z" fill="#FBFF3A"/>
</svg>
