<svg width="45" height="45" viewBox="0 0 45 45" fill="none" xmlns="http://www.w3.org/2000/svg">
<rect width="45" height="45" rx="7" fill="#00E1FF"/>
<path d="M28.7783 17.4426H21.3743L29.7979 25.9214L21.2651 34.4001L18.9404 36.6602H26.6263L36.4172 26.82C37.1031 26.0656 37.2819 25.9214 36.4125 25.0274L28.7783 17.4426Z" fill="black"/>
<path d="M24.3819 27.076H16.9216L9.28622 19.4912C9.16807 19.3738 9.07421 19.2344 9.01001 19.0808C8.94582 18.9271 8.91255 18.7624 8.91211 18.5959C8.91168 18.4294 8.94408 18.2644 9.00747 18.1104C9.07086 17.9565 9.16399 17.8165 9.28152 17.6986L19.0724 7.8584H26.7594L24.4359 10.1185L15.902 18.5972L24.3279 27.076" fill="black"/>
</svg>
