<svg width="45" height="45" viewBox="0 0 45 45" fill="none" xmlns="http://www.w3.org/2000/svg">
<g clip-path="url(#clip0_0_3)">
<rect width="45" height="45" rx="7" fill="white"/>
<path d="M23 29.9852C20.8849 29.9852 18.8564 29.1439 17.3608 27.6464C15.8652 26.1489 15.025 24.1178 15.025 22C15.025 19.8822 15.8652 17.8511 17.3608 16.3536C18.8564 14.8561 20.8849 14.0148 23 14.0148V7.48148C20.1322 7.48148 17.3287 8.33297 14.9442 9.92829C12.5597 11.5236 10.7012 13.7911 9.60374 16.444C8.50627 19.0969 8.21913 22.0161 8.77861 24.8324C9.3381 27.6487 10.7191 30.2357 12.7469 32.2661C14.7748 34.2966 17.3585 35.6793 20.1712 36.2395C22.9839 36.7997 25.8994 36.5122 28.5489 35.4134C31.1984 34.3145 33.463 32.4536 35.0563 30.0661C36.6496 27.6785 37.5 24.8715 37.5 22H30.975C30.975 24.1178 30.1348 26.1489 28.6392 27.6464C27.1436 29.1439 25.1151 29.9852 23 29.9852Z" fill="#2354E6"/>
<path d="M30.975 14.0148H23V22H30.975V14.0148Z" fill="#17E6A1"/>
</g>
<defs>
<clipPath id="clip0_0_3">
<rect width="45" height="45" rx="7" fill="white"/>
</clipPath>
</defs>
</svg>
