<svg width="45" height="45" viewBox="0 0 45 45" fill="none" xmlns="http://www.w3.org/2000/svg">
<rect width="45" height="45" rx="7" fill="white"/>
<g clip-path="url(#clip0_7010_6878)">
<path d="M36.5164 26.7986L30.0292 15.5462C28.6072 13.2002 25.1392 13.1762 23.7664 15.6458L16.9552 27.3482C15.6832 29.4938 17.2552 32.1878 19.8004 32.1878H33.448C36.0172 32.1878 37.9384 29.4182 36.5164 26.7986Z" fill="#3156AA"/>
<path d="M27.1602 27.6731L26.7606 26.9747C26.3862 26.3255 25.563 24.9287 25.563 24.9287L20.0742 15.3971C18.6522 13.2767 15.2838 13.1015 13.8618 15.7715L7.47424 26.8247C6.15184 29.1455 7.72384 32.1635 10.593 32.1887H24.1662H29.955H33.3978C29.8806 32.2139 28.7574 30.3923 27.1602 27.6731Z" fill="#1972E2"/>
<path d="M27.162 27.6724L26.7624 26.974C26.388 26.3248 25.5648 24.928 25.5648 24.928L22.0212 18.6904L16.9308 27.3736C15.6588 29.5192 17.2308 32.2144 19.7748 32.2144H24.1416H29.9304H33.3984C29.856 32.188 28.758 30.3916 27.162 27.6724Z" fill="url(#paint0_linear_7010_6878)"/>
</g>
<defs>
<linearGradient id="paint0_linear_7010_6878" x1="15.4445" y1="23.4344" x2="30.2286" y2="29.2476" gradientUnits="userSpaceOnUse">
<stop stop-color="#264CA2" stop-opacity="0"/>
<stop offset="1" stop-color="#234588"/>
</linearGradient>
<clipPath id="clip0_7010_6878">
<rect width="30" height="30" fill="white" transform="translate(7 8)"/>
</clipPath>
</defs>
</svg>
