<svg width="45" height="45" viewBox="0 0 45 45" fill="none" xmlns="http://www.w3.org/2000/svg">
<rect width="45" height="45" rx="7" fill="white"/>
<g clip-path="url(#clip0_6520_10678)">
<path fill-rule="evenodd" clip-rule="evenodd" d="M12.9875 13.375C12.55 11.1 14.3 9 16.575 9C18.5875 9 20.25 10.6625 20.25 12.675V17.225C20.775 17.225 21.3 17.1375 21.825 17.1375C22.35 17.1375 22.7875 17.1375 23.3125 17.225V12.675C23.3125 10.6625 24.975 9 26.9875 9C29.2625 9 31.0125 11.1 30.6625 13.375L29.7 18.7125C33.1125 20.2 35.7375 22.825 35.7375 26.0625V28.075C35.7375 30.7875 33.9875 33.0625 31.45 34.55C28.9125 36.125 25.5875 37 21.825 37C18.0625 37 14.7375 36.125 12.2 34.55C9.75 33.0625 8 30.7875 8 28.075V26.0625C8 22.825 10.5375 20.2 13.95 18.7125L12.9875 13.375ZM28.3875 19.4125L29.525 13.1125C29.7875 11.5375 28.65 10.05 26.9875 10.05C25.5875 10.05 24.45 11.1875 24.45 12.5875V18.3625C24.1 18.275 23.6625 18.275 23.3125 18.275C22.7875 18.275 22.35 18.1875 21.825 18.1875C21.3 18.1875 20.775 18.1875 20.25 18.275C19.9 18.275 19.4625 18.3625 19.1125 18.3625V12.675C19.1125 11.275 17.975 10.1375 16.575 10.1375C15 10.1375 13.775 11.625 14.125 13.2L15.2625 19.5C11.5875 20.9 9.1375 23.35 9.1375 26.15V28.1625C9.1375 32.45 14.825 35.95 21.825 35.95C28.825 35.95 34.5125 32.45 34.5125 28.1625V26.15C34.6 23.2625 32.15 20.8125 28.3875 19.4125Z" fill="#633001"/>
<path d="M34.6006 28.075C34.6006 32.3625 28.9131 35.8625 21.9131 35.8625C14.9131 35.8625 9.22559 32.3625 9.22559 28.075V26.0625H34.6881V28.075H34.6006Z" fill="#FEDC90"/>
<path fill-rule="evenodd" clip-rule="evenodd" d="M14.1256 13.1997C13.7756 11.6247 15.0006 10.1372 16.5756 10.1372C17.9756 10.1372 19.1131 11.2747 19.1131 12.6747V18.4497C19.9881 18.3622 20.8631 18.2747 21.8256 18.2747C22.7006 18.2747 23.5756 18.3622 24.4506 18.4497V12.6747C24.4506 11.2747 25.5881 10.1372 26.9881 10.1372C28.5631 10.1372 29.7881 11.6247 29.5256 13.1997L28.3881 19.4997C32.0631 20.8997 34.6006 23.3497 34.6006 26.1497C34.6006 30.4372 28.9131 33.9372 21.9131 33.9372C14.9131 33.9372 9.22559 30.4372 9.22559 26.1497C9.22559 23.3497 11.6756 20.8997 15.3506 19.4997L14.1256 13.1997Z" fill="#D1884F"/>
<path d="M18.3244 25.5375C18.3244 26.675 17.7119 27.6375 16.9244 27.6375C16.1369 27.6375 15.5244 26.675 15.5244 25.5375C15.5244 24.4 16.1369 23.4375 16.9244 23.4375C17.7119 23.4375 18.3244 24.4 18.3244 25.5375Z" fill="#633001"/>
<path d="M28.0373 25.5375C28.0373 26.675 27.4248 27.6375 26.6373 27.6375C25.8498 27.6375 25.2373 26.675 25.2373 25.5375C25.2373 24.4 25.8498 23.4375 26.6373 23.4375C27.4248 23.4375 28.0373 24.4 28.0373 25.5375Z" fill="#633001"/>
</g>
<defs>
<clipPath id="clip0_6520_10678">
<rect width="27.7375" height="28" fill="white" transform="translate(8 9)"/>
</clipPath>
</defs>
</svg>
