<svg width="45" height="45" viewBox="0 0 45 45" fill="none" xmlns="http://www.w3.org/2000/svg">
<rect width="45" height="45" rx="7" fill="#FF007A"/>
<path d="M16.9029 16.7675C16.2527 15.8582 12.2291 10.2164 8.56738 5.72355C8.24472 5.32755 7.9905 5 8.00027 5C8.04916 5 18.8438 16.9777 19.6162 17.8919L19.8313 18.1462L19.8118 18.5373C19.7873 19.0555 19.626 19.4026 19.2447 19.7595C18.7998 20.1702 18.262 20.3902 17.4162 20.5075C16.898 20.5759 16.7122 20.6542 16.502 20.8888C16.3016 21.1137 16.2234 21.3875 16.1696 22.0964C16.0865 23.1915 15.9594 23.651 15.446 24.7364C14.9522 25.7826 14.8496 26.1786 14.9376 26.7408C15.0451 27.4252 15.4265 27.9239 16.3211 28.5399C17.0056 29.0092 17.3136 29.3124 17.4847 29.679C17.5922 29.9039 17.602 29.987 17.602 30.3781C17.5971 30.9746 17.5042 31.2141 17.0985 31.6492C16.4434 32.3532 15.2798 32.9252 13.8474 33.2528C13.246 33.3897 13.2216 33.3897 13.2216 33.2479C13.2216 33.0719 13.0016 32.6221 12.6154 32.0208C12.1656 31.3217 11.9896 30.9697 11.8234 30.4417C11.6278 29.8355 11.574 29.4297 11.6034 28.7941C11.6327 28.1928 11.6963 27.9288 11.9309 27.4546C12.1167 27.0781 12.2389 26.907 12.982 25.9733C14.2483 24.3795 14.7078 23.4457 14.8691 22.1257C15.0158 20.9475 15.2162 20.3804 15.666 19.8719C15.9349 19.5688 15.9936 19.4515 15.9936 19.2315C15.9936 19.1239 15.1234 17.4275 13.8523 15.1297C11.8283 11.4729 11.8283 11.4729 11.8869 11.5266C11.9114 11.5511 12.8451 13.0031 13.9647 14.7582C15.4265 17.0462 16.502 18.6204 16.6585 18.7719C16.8785 18.9871 17.1865 19.1191 17.4553 19.1191C17.6949 19.1191 17.9345 19.0751 18.1642 18.9431C18.4527 18.7768 18.3109 18.5959 17.8269 17.9897C17.6118 17.716 17.3233 17.3542 16.9762 16.8702C16.9616 16.8506 16.9371 16.8164 16.9029 16.7675Z" fill="white"/>
<path d="M18.7411 12.2991C18.5798 12.3235 18.5945 12.3333 18.9416 12.3871C20.2078 12.5826 21.1904 13.0862 22.2024 14.0493C22.6424 14.4746 23.0873 14.9977 23.806 15.9511C25.4242 18.0924 26.1135 18.6888 27.4726 19.1386C28.2695 19.4026 29.0762 19.5297 30.5037 19.6031C32.0828 19.6911 32.6793 19.8182 33.2415 20.1946C33.5544 20.4048 33.7988 20.6639 34.0433 21.0453L34.1851 21.2653L34.1557 21.0208C34.0433 20.0871 33.3833 18.7768 32.5424 17.8137L32.3908 17.6377L32.3126 17.9897C32.1171 18.8746 31.6966 19.5151 31.3055 19.5151C31.1149 19.5151 30.9193 19.3928 30.8509 19.2266C30.7629 19.0213 30.7726 18.9431 30.8997 18.6986C31.1344 18.2488 31.1931 17.6524 31.0757 16.8702C31.0415 16.6453 30.9926 16.4351 30.9633 16.4008C30.8802 16.2982 30.1957 15.8973 29.7655 15.6968C28.1962 14.9635 26.3189 14.7289 24.4709 15.0271L24.0309 15.1004L23.7229 14.7533C22.5691 13.4577 21.4887 12.7244 20.3007 12.4409C19.7922 12.3186 19.054 12.2502 18.7411 12.2991Z" fill="white"/>
<path d="M31.5793 13.0666C31.4082 13.448 31.3202 13.8684 31.286 14.5089C31.2615 14.9244 31.2371 15.0613 31.1931 15.0809C31.1197 15.1053 31.022 15.0809 30.4402 14.8511C30.0491 14.6995 29.0713 14.4111 29.042 14.4404C29.0371 14.4502 29.2424 14.548 29.4966 14.6653C29.7557 14.7826 30.1713 15.0026 30.4255 15.1542C31.4277 15.7555 31.5989 16.1026 31.5989 17.5546C31.5989 18.2782 31.5891 18.3711 31.5011 18.5911C31.3837 18.8844 31.4033 18.9382 31.5353 18.6791C31.7749 18.2 31.8775 17.7208 31.8922 16.9728C31.902 16.4888 31.9166 16.3911 31.9851 16.3226C32.0584 16.2493 32.078 16.2444 32.1953 16.308C32.3713 16.4008 33.1682 17.0413 33.5153 17.3688L33.7988 17.6377L33.5153 17.2613C33.3588 17.056 32.9286 16.572 32.5571 16.1906C31.77 15.3742 31.7064 15.2666 31.5989 14.5137C31.5109 13.9222 31.5304 13.4089 31.6575 13.0373C31.7015 12.9004 31.7309 12.788 31.7211 12.788C31.7113 12.788 31.6477 12.9151 31.5793 13.0666Z" fill="white"/>
<path d="M19.6162 16.9924C18.9122 16.0146 18.4771 14.5137 18.57 13.3942L18.6042 13.0422L18.7656 13.0715C19.0638 13.1302 19.582 13.3257 19.8265 13.4724C20.4913 13.8782 20.7798 14.416 21.0731 15.7995C21.1562 16.2053 21.2687 16.66 21.3224 16.8164C21.4056 17.0657 21.7233 17.6475 21.9776 18.0288C22.1633 18.3026 22.0411 18.4297 21.6304 18.3955C21.0096 18.3417 20.1589 17.7502 19.6162 16.9924Z" fill="white"/>
<path d="M25.9864 19.8231C25.9864 21.7786 27.1402 22.9422 30.4304 24.2768C32.6206 25.1666 33.5153 25.6261 34.19 26.2079C34.7766 26.7164 35.1237 27.3959 35.1579 28.095C35.1628 28.2221 35.1873 28.3199 35.2117 28.3101C35.2997 28.2857 35.6371 27.523 35.7446 27.1026C35.8815 26.5648 35.9304 25.5528 35.8473 25.015C35.5491 23.1573 34.3073 21.7933 32.3028 21.1186C31.6722 20.9084 30.9877 20.7666 29.7704 20.5857C27.7024 20.2826 26.9544 20.0479 26.2895 19.5102C26.1478 19.3928 26.0158 19.2999 26.006 19.2999C25.9962 19.2999 25.9864 19.5346 25.9864 19.8231Z" fill="white"/>
<path d="M28.1229 24.8341C28.0838 24.5848 28.0153 24.267 27.9664 24.1301L27.8833 23.8808L28.0398 24.0568C28.2549 24.3013 28.4211 24.6141 28.5678 25.0297C28.6802 25.3475 28.69 25.4404 28.69 25.9586C28.69 26.467 28.6753 26.5697 28.5726 26.8581C28.4113 27.3079 28.2158 27.6306 27.8784 27.9728C27.2771 28.5888 26.5046 28.931 25.39 29.0728C25.1944 29.0972 24.6322 29.1412 24.1335 29.1657C22.8869 29.2341 22.0607 29.3661 21.3224 29.6301C21.2149 29.6692 21.122 29.6937 21.1122 29.6839C21.0829 29.6497 21.5864 29.3515 22.002 29.1461C22.5887 28.8626 23.1704 28.7061 24.4807 28.4861C25.126 28.3786 25.7909 28.2466 25.962 28.1928C27.5655 27.6941 28.3869 26.4181 28.1229 24.8341Z" fill="white"/>
<path d="M29.3353 24.8195C29.0957 25.675 29.1984 26.5893 29.6335 27.5377C29.8486 28.0119 30.0686 28.3737 30.9633 29.723C31.7309 30.8866 32.1122 31.5759 32.298 32.1381C32.606 33.0572 32.5571 33.8834 32.1562 34.7341C32.0633 34.9394 31.9997 35.1008 32.0144 35.1008C32.034 35.1008 32.1904 35.0226 32.3664 34.9248C33.5642 34.2648 34.4002 33.1403 34.7619 31.7128C34.8744 31.2581 34.9233 30.1728 34.8451 29.723C34.7082 28.931 34.4246 28.2759 33.97 27.7039C33.4468 27.0488 32.6842 26.4768 31.3397 25.7386C30.2642 25.147 29.8584 24.9173 29.658 24.7804C29.5553 24.7119 29.4526 24.6533 29.4282 24.6533C29.4037 24.6533 29.3597 24.7266 29.3353 24.8195Z" fill="white"/>
<path d="M17.2842 32.6515C18.5065 31.615 20.022 30.8719 21.4056 30.647C21.9971 30.5492 22.9895 30.5883 23.542 30.7252C24.4269 30.9501 25.2189 31.4635 25.6295 32.0746C26.0304 32.671 26.2015 33.1892 26.3824 34.3479C26.4509 34.8026 26.5291 35.2621 26.5535 35.3648C26.6904 35.9661 26.9544 36.4452 27.2771 36.6848C27.7953 37.071 28.6851 37.0905 29.5602 36.7483C29.7117 36.6897 29.8389 36.6505 29.8486 36.6603C29.8829 36.6945 29.4429 36.9928 29.13 37.1492C28.7144 37.3594 28.3771 37.4425 27.9371 37.4425C27.1353 37.4425 26.4704 37.0319 25.9131 36.191C25.8006 36.0248 25.5562 35.531 25.3655 35.091C24.7789 33.7368 24.4904 33.3261 23.8109 32.8763C23.2193 32.4852 22.4567 32.4168 21.8798 32.7003C21.1269 33.0719 20.9118 34.0497 21.4544 34.6657C21.6696 34.9101 22.0704 35.1203 22.398 35.1643C23.0091 35.2377 23.5371 34.7683 23.5371 34.1426C23.5371 33.7368 23.3807 33.5021 22.9944 33.3261C22.4616 33.0817 21.8896 33.3652 21.8944 33.8688C21.8944 34.079 21.9873 34.2159 22.2024 34.3137C22.3393 34.3772 22.3442 34.3821 22.2318 34.3577C21.7429 34.255 21.6304 33.6634 22.0216 33.2674C22.4958 32.7932 23.4687 33.0034 23.8011 33.6488C23.9429 33.9226 23.9575 34.4603 23.8353 34.7879C23.5615 35.5163 22.7647 35.9025 21.9531 35.6923C21.4007 35.5505 21.1758 35.3941 20.5109 34.7048C19.3571 33.507 18.9073 33.2723 17.2402 33.0083L16.9225 32.9594L17.2842 32.6515Z" fill="white"/>
<path d="M20.3642 20.7177C19.9682 20.8399 19.5869 21.2653 19.4647 21.7102C19.3962 21.979 19.4353 22.4582 19.5429 22.6048C19.7189 22.8444 19.89 22.9079 20.3496 22.903C21.254 22.8982 22.0362 22.507 22.1291 22.0182C22.2073 21.6173 21.8602 21.0599 21.386 20.8155C21.1416 20.6884 20.6184 20.6395 20.3642 20.7177Z" fill="white"/>
</svg>
