<svg viewBox="0 0 25 27" fill="none" xmlns="http://www.w3.org/2000/svg">
<g id="&#208;&#145;&#208;&#181;&#208;&#183; &#208;&#189;&#208;&#176;&#208;&#183;&#208;&#178;&#208;&#176;&#208;&#189;&#208;&#184;&#209;&#143; 1" clip-path="url(#clip0_6848_60174)">
<g id="Group">
<g id="Group_2">
<path id="Vector" d="M1.78259 8.20583V18.7905C1.78259 19.4641 2.14287 20.088 2.7304 20.4248L11.9313 25.7144C12.5189 26.0512 13.2394 26.0512 13.8269 25.7144L23.0279 20.4248C23.6154 20.088 23.9757 19.4641 23.9757 18.7905V8.20583C23.9757 7.53221 23.6154 6.90828 23.0279 6.57148L13.8269 1.2819C13.2394 0.945094 12.5189 0.945094 11.9313 1.2819L2.7304 6.57148C2.14841 6.90828 1.78259 7.53221 1.78259 8.20583Z" fill="#213147"/>
<g id="Group_3">
<g id="Group_4">
<g id="Group_5">
<path id="Vector_2" d="M14.8911 15.5476L13.5774 19.1311C13.5386 19.2305 13.5386 19.3409 13.5774 19.4403L15.8333 25.6078L18.444 24.1059L15.3123 15.5476C15.2403 15.3489 14.9631 15.3489 14.8911 15.5476Z" fill="#12AAFF"/>
</g>
<g id="Group_6">
<path id="Vector_3" d="M17.5184 9.51822C17.4463 9.31945 17.1692 9.31945 17.0971 9.51822L15.7835 13.1017C15.7447 13.201 15.7447 13.3115 15.7835 13.4109L19.4805 23.5096L22.0911 22.0078L17.5184 9.51822Z" fill="#12AAFF"/>
</g>
</g>
</g>
<path id="Vector_4" d="M12.8791 1.67301C12.9456 1.67301 13.0066 1.68957 13.0675 1.7227L23.0223 7.44847C23.1387 7.51472 23.2107 7.6362 23.2107 7.76871V19.2202C23.2107 19.3528 23.1387 19.4742 23.0223 19.5405L13.0675 25.2718C13.0121 25.3049 12.9456 25.3215 12.8791 25.3215C12.8126 25.3215 12.7516 25.3049 12.6906 25.2718L2.74143 19.546C2.62504 19.4798 2.55298 19.3583 2.55298 19.2258V7.76871C2.55298 7.6362 2.62504 7.51472 2.74143 7.44847L12.6962 1.7227C12.7516 1.68957 12.8181 1.67301 12.8791 1.67301ZM12.8791 0C12.5243 0 12.1696 0.093865 11.8537 0.276074L1.89894 6.00184C1.26707 6.36626 0.873535 7.03988 0.873535 7.76871V19.2202C0.873535 19.9491 1.26707 20.6282 1.89894 20.9926L11.8537 26.7184C12.1696 26.9006 12.5243 26.9945 12.8791 26.9945C13.2338 26.9945 13.5885 26.9006 13.9045 26.7184L23.8592 20.9926C24.4966 20.6282 24.8846 19.9546 24.8846 19.2202V7.76871C24.8846 7.03988 24.4911 6.36074 23.8592 5.99632L13.91 0.276074C13.5885 0.093865 13.2338 0 12.8791 0Z" fill="#9DCCED"/>
<path id="Vector_5" d="M6.30029 23.5211L7.21484 21.0254L9.05503 22.5493L7.33678 24.1174L6.30029 23.5211Z" fill="#213147"/>
<g id="Group_7">
<path id="Vector_6" d="M12.0419 6.95117H9.51991C9.33146 6.95117 9.15963 7.06712 9.09866 7.24381L3.68896 22.0193L6.29959 23.5211L12.258 7.24933C12.3079 7.10577 12.2026 6.95117 12.0419 6.95117Z" fill="white"/>
<path id="Vector_7" d="M16.4598 6.95117H13.9378C13.7494 6.95117 13.5775 7.06712 13.5166 7.24381L7.33643 24.1174L9.94705 25.6193L16.6704 7.25485C16.7258 7.10577 16.6149 6.95117 16.4598 6.95117Z" fill="white"/>
</g>
</g>
</g>
</g>
<defs>
<clipPath id="clip0_6848_60174">
<rect width="24" height="27" fill="white" transform="translate(0.873535)"/>
</clipPath>
</defs>
</svg>
