<svg viewBox="0 0 31 31" fill="none" xmlns="http://www.w3.org/2000/svg">
<g id="coingecko logo" clip-path="url(#clip0_6945_39915)">
<path id="Vector" d="M30.9416 15.336C30.9545 18.2607 30.0999 21.1235 28.4858 23.5625C26.8717 26.0015 24.5706 27.9071 21.8736 29.0383C19.1765 30.1696 16.2045 30.4757 13.3335 29.9179C10.4625 29.3601 7.82129 27.9635 5.74396 25.9047C3.66664 23.8459 2.24645 21.2173 1.66299 18.3514C1.07952 15.4855 1.35898 12.5109 2.46602 9.80382C3.57307 7.09672 5.45798 4.77867 7.88241 3.1428C10.3068 1.50693 13.1619 0.626706 16.0866 0.613427C20.0088 0.596032 23.7772 2.13734 26.5631 4.89832C29.3489 7.65931 30.9239 11.4138 30.9416 15.336Z" fill="#8DC63F"/>
<path id="Vector_2" d="M29.8278 15.3383C29.8401 18.0428 29.0501 20.6901 27.5579 22.9456C26.0656 25.201 23.938 26.9634 21.4442 28.0097C18.9504 29.056 16.2023 29.3393 13.5474 28.8238C10.8926 28.3082 8.45019 27.017 6.52917 25.1134C4.60814 23.2099 3.29473 20.7794 2.75503 18.1293C2.21533 15.4793 2.47358 12.7287 3.49711 10.2254C4.52064 7.72215 6.26349 5.5786 8.50527 4.06584C10.7471 2.55309 13.3871 1.73906 16.0915 1.72671C17.8872 1.7185 19.6669 2.06407 21.329 2.74369C22.9912 3.4233 24.5032 4.42364 25.7787 5.6876C27.0543 6.95157 28.0684 8.45439 28.7631 10.1103C29.4578 11.7661 29.8196 13.5426 29.8278 15.3383Z" fill="#F9E988"/>
<path id="Vector_3" d="M16.4038 2.61248C17.2731 2.4573 18.163 2.4573 19.0323 2.61248C19.91 2.75155 20.7583 3.0359 21.5425 3.45386C22.3215 3.88234 22.9962 4.46351 23.6662 5.01196C24.3361 5.56042 25.0046 6.11511 25.6403 6.72588C26.2885 7.32641 26.8543 8.01013 27.323 8.75922C27.8063 9.50324 28.2021 10.3006 28.5025 11.1353C29.0871 12.8027 29.2535 14.5881 28.9871 16.3347H28.8998C28.6432 14.6661 28.214 13.0285 27.6191 11.4485C27.334 10.6671 26.9983 9.90517 26.6141 9.16744C26.2104 8.43185 25.7661 7.71922 25.2835 7.03283C24.7911 6.33811 24.1879 5.72907 23.4979 5.2301C22.8045 4.73618 22.0068 4.41521 21.2339 4.11138C20.4611 3.80755 19.6883 3.50527 18.8859 3.27312C18.0834 3.04096 17.2623 2.86801 16.4069 2.69973L16.4038 2.61248Z" fill="white"/>
<path id="Vector_4" d="M23.0876 10.5088C22.0951 10.2205 21.062 9.81386 20.0243 9.40251C19.9651 9.14075 19.733 8.81511 19.2655 8.41779C18.5846 7.82727 17.307 7.84285 16.2023 8.10617C14.9838 7.81948 13.7794 7.7182 12.6186 7.99554C3.1687 10.5976 8.5286 16.9593 5.05713 23.3476C5.55105 24.3946 10.8751 30.5149 18.5784 28.868C18.5784 28.868 15.9452 22.5374 21.8894 19.4991C26.7117 17.0263 30.1972 12.4486 23.0876 10.5088Z" fill="#8BC53F"/>
<path id="Vector_5" d="M24.2547 14.6703C24.2556 14.7838 24.2228 14.8951 24.1604 14.9899C24.098 15.0848 24.0089 15.159 23.9043 15.2032C23.7997 15.2473 23.6844 15.2595 23.5729 15.238C23.4614 15.2165 23.3588 15.1624 23.2781 15.0826C23.1973 15.0028 23.1421 14.9007 23.1195 14.7895C23.0968 14.6782 23.1076 14.5628 23.1507 14.4577C23.1937 14.3526 23.2669 14.2627 23.3611 14.1993C23.4553 14.1359 23.5662 14.1019 23.6797 14.1016C23.7548 14.1012 23.8293 14.1155 23.8988 14.1439C23.9683 14.1723 24.0316 14.214 24.085 14.2668C24.1384 14.3197 24.1808 14.3825 24.2099 14.4517C24.2391 14.5209 24.2543 14.5952 24.2547 14.6703Z" fill="white"/>
<path id="Vector_6" d="M16.2026 8.10391C16.8913 8.15377 19.3827 8.9671 20.0247 9.40337C19.4934 7.84526 17.6875 7.64271 16.2026 8.10391Z" fill="#009345"/>
<path id="Vector_7" d="M16.8576 12.0316C16.8576 12.5555 16.7023 13.0676 16.4112 13.5032C16.1202 13.9388 15.7065 14.2783 15.2225 14.4788C14.7385 14.6792 14.2059 14.7317 13.6921 14.6295C13.1783 14.5273 12.7063 14.275 12.3359 13.9046C11.9654 13.5341 11.7132 13.0622 11.611 12.5484C11.5088 12.0345 11.5612 11.502 11.7617 11.018C11.9622 10.5339 12.3017 10.1203 12.7373 9.82921C13.1728 9.53816 13.685 9.38281 14.2088 9.38281C14.9113 9.38281 15.5851 9.66188 16.0818 10.1586C16.5786 10.6554 16.8576 11.3291 16.8576 12.0316Z" fill="white"/>
<path id="Vector_8" d="M16.0738 12.0561C16.0741 12.4241 15.9653 12.7839 15.761 13.0901C15.5568 13.3962 15.2663 13.6349 14.9264 13.776C14.5865 13.917 14.2124 13.9541 13.8514 13.8825C13.4904 13.8109 13.1588 13.6338 12.8985 13.3737C12.6381 13.1136 12.4608 12.7821 12.3889 12.4212C12.317 12.0602 12.3537 11.6861 12.4945 11.3461C12.6353 11.006 12.8737 10.7154 13.1797 10.5109C13.4856 10.3064 13.8454 10.1973 14.2134 10.1973C14.7064 10.1977 15.1791 10.3936 15.5279 10.7421C15.8766 11.0905 16.073 11.5631 16.0738 12.0561Z" fill="#58595B"/>
<path id="Vector_9" d="M26.3968 15.8366C24.2544 17.3464 21.8175 18.4853 18.3616 18.4853C16.7443 18.4853 16.4171 16.7714 15.3482 17.6097C14.7951 18.0444 12.8552 19.012 11.3049 18.9434C9.7546 18.8749 7.25383 17.9634 6.56047 14.668C6.28469 17.9634 6.1429 20.3909 4.90576 23.1737C7.37069 27.1204 13.2463 30.1634 18.5782 28.8545C18.0063 24.8533 21.5027 20.9331 23.4737 18.9278C24.2185 18.169 25.6551 16.9288 26.3968 15.8303V15.8366Z" fill="#8BC53F"/>
<path id="Vector_10" d="M26.3124 15.9351C25.6298 16.5221 24.8683 17.0104 24.05 17.3857C23.2344 17.7732 22.384 18.0831 21.5103 18.3112C20.6377 18.5371 19.7247 18.7069 18.8007 18.6228C17.8768 18.5387 16.931 18.2239 16.3218 17.5321L16.3514 17.4978C17.1055 17.9855 17.9671 18.1569 18.8272 18.1819C19.7005 18.2072 20.5738 18.1346 21.4308 17.9653C22.2967 17.7848 23.1438 17.524 23.9612 17.1862C24.7918 16.869 25.5738 16.4369 26.2843 15.9023L26.3124 15.9351Z" fill="#58595B"/>
</g>
<defs>
<clipPath id="clip0_6945_39915">
<rect width="30" height="30" fill="white" transform="translate(0.873535 0.5)"/>
</clipPath>
</defs>
</svg>
