<svg viewBox="0 0 31 31" fill="none" xmlns="http://www.w3.org/2000/svg">
<path id="Vector" d="M30.8632 15.5062V15.4481C30.8337 7.21722 24.1044 0.5 15.8684 0.5C7.63233 0.5 0.873535 7.21722 0.873535 15.5062C0.873535 23.7963 7.60175 30.5 15.8684 30.5C19.6616 30.5025 23.3099 29.064 26.054 26.4838C26.3243 26.2405 26.4854 25.9014 26.5019 25.5411C26.5184 25.1808 26.389 24.8287 26.1421 24.5624C25.8951 24.2961 25.5509 24.1374 25.1852 24.1211C24.8195 24.1049 24.4622 24.2324 24.1919 24.4757L24.1624 24.5048C22.9784 25.6138 21.5791 26.4756 20.0486 27.0385C18.5181 27.6014 16.8879 27.8538 15.2559 27.7806C13.6239 27.7073 12.0238 27.3099 10.5516 26.6122C9.07935 25.9145 7.76541 24.9309 6.68863 23.7204L13.0942 13.5999V18.2831C13.0942 20.5208 13.9799 21.249 14.7243 21.4526C15.4687 21.6562 16.5854 21.5087 17.7948 19.619L21.3091 13.9968C21.403 13.8326 21.5116 13.6768 21.6318 13.5303V16.382C21.6318 18.4753 22.488 20.1624 23.9631 20.9758C24.6441 21.3411 25.4127 21.5179 26.1874 21.4873C26.9622 21.4568 27.714 21.22 28.3632 20.8023C30.0671 19.7125 30.9823 17.8042 30.8632 15.5062ZM26.9661 18.4514C26.7295 18.612 26.4536 18.7074 26.1669 18.7276C25.8803 18.7479 25.5934 18.6923 25.336 18.5667C24.7455 18.2187 24.3901 17.4343 24.3901 16.3581V13.0618C24.3901 11.4931 23.7701 10.3577 22.7084 10.0689C20.9064 9.53283 19.5504 11.7258 19.0474 12.5403L15.8684 17.5704V11.3768C15.8388 9.95252 15.3654 9.10898 14.4797 8.84615C13.8892 8.67266 13.0035 8.76096 12.1484 10.0408L5.03426 21.2656C4.08784 19.4888 3.59186 17.5128 3.58865 15.5062C3.58865 8.72979 9.10746 3.23322 15.8684 3.23322C22.6293 3.23322 28.1481 8.72979 28.1481 15.5062V15.5654C28.2187 16.8723 27.7927 17.9216 26.9671 18.4431L26.9661 18.4514Z" fill="white"/>
</svg>
