<svg viewBox="0 0 24 24" fill="none" xmlns="http://www.w3.org/2000/svg">
<rect width="24" height="24" rx="6" fill="black"/>
<path d="M14.6667 10.5H9.33333C8.87333 10.5 8.5 10.8733 8.5 11.3333V12.0333C8.52 12.0267 8.53333 12.02 8.55333 12.0133C8.63333 11.9733 8.72 11.9467 8.80667 11.92C8.84667 11.9067 8.88667 11.8933 8.93333 11.88C9.06667 11.8533 9.2 11.8333 9.34 11.8333H14.6733C14.8133 11.8333 14.9467 11.8533 15.08 11.88C15.12 11.8867 15.16 11.9067 15.2067 11.92C15.2933 11.9467 15.38 11.9733 15.46 12.0133C15.48 12.02 15.5 12.0267 15.5133 12.0333V11.3333C15.5 10.8733 15.1267 10.5 14.6667 10.5Z" fill="#FBFF3A"/>
<path d="M14.6667 12.834H9.33333C8.87333 12.834 8.5 13.2073 8.5 13.6673V14.0007H10.3333C10.6067 14.0007 10.8333 14.2273 10.8333 14.5007C10.8333 15.1407 11.36 15.6673 12 15.6673C12.64 15.6673 13.1667 15.1407 13.1667 14.5007C13.1667 14.2273 13.3933 14.0007 13.6667 14.0007H15.5V13.6673C15.5 13.2073 15.1267 12.834 14.6667 12.834Z" fill="#FBFF3A"/>
<path d="M14.6667 8.33398H9.33333C8.87333 8.33398 8.5 8.70732 8.5 9.16732V9.70732C8.75333 9.58065 9.03333 9.50065 9.33333 9.50065H14.6667C14.9667 9.50065 15.2467 9.58065 15.5 9.70732V9.16732C15.5 8.70732 15.1267 8.33398 14.6667 8.33398Z" fill="#FBFF3A"/>
<path d="M14.793 5.33398H9.20634C6.77967 5.33398 5.33301 6.78065 5.33301 9.20732V14.7873C5.33301 17.2207 6.77967 18.6673 9.20634 18.6673H14.7863C17.213 18.6673 18.6597 17.2207 18.6597 14.794V9.20732C18.6663 6.78065 17.2197 5.33398 14.793 5.33398ZM16.6663 15.0007H15.9997H14.1063C13.8797 15.954 13.0197 16.6673 11.9997 16.6673C10.9797 16.6673 10.1197 15.954 9.89301 15.0007H7.99967H7.33301C7.05967 15.0007 6.83301 14.774 6.83301 14.5007C6.83301 14.2273 7.05967 14.0007 7.33301 14.0007H7.49967V13.6673V13.334V11.334V9.16732C7.49967 8.15398 8.31967 7.33398 9.33301 7.33398H14.6663C15.6797 7.33398 16.4997 8.15398 16.4997 9.16732V11.334V13.334V13.6673V14.0007H16.6663C16.9397 14.0007 17.1663 14.2273 17.1663 14.5007C17.1663 14.774 16.9397 15.0007 16.6663 15.0007Z" fill="#FBFF3A"/>
</svg>
