<svg viewBox="0 0 45 45" fill="none" xmlns="http://www.w3.org/2000/svg">
<circle cx="22.5" cy="22.5" r="21.5" fill="#04E000"/>
<path d="M21.9044 26.25L18.1496 23.1682L19.4951 22.0324L21.9044 23.9785L26.6708 19.8764L28.0174 21.0113L21.9044 26.25Z" fill="black"/>
<path fill-rule="evenodd" clip-rule="evenodd" d="M22.5005 12.5C18.8338 15.1272 16.5354 15.25 12.7109 15.25V25.8238C12.7109 30.0432 16.1949 31.1441 22.5005 34.5C28.806 31.1441 32.29 30.0432 32.29 25.8238V15.25C28.4656 15.25 26.1672 15.1272 22.5005 12.5ZM18.1496 23.1682L21.9044 26.25L28.0174 21.0113L26.6708 19.8764L21.9044 23.9785L19.4951 22.0324L18.1496 23.1682Z" fill="black"/>
<path fill-rule="evenodd" clip-rule="evenodd" d="M21.6559 23.674L20.5957 22.3425L17.5 22.3425L21.0433 26.5584L21.0575 26.5415L21.6228 27.2159L27.4993 20.5L24.4035 20.5L21.6559 23.674Z" fill="#04E000"/>
</svg>
