<svg viewBox="0 0 45 45" fill="none" xmlns="http://www.w3.org/2000/svg">
<circle cx="22.5" cy="22.5" r="21.5" fill="#F9E727"/>
<path d="M26.3533 13.9833C26.6115 15.4228 25.5785 17.3419 25.5785 17.3419C25.8366 15.6626 23.6843 11.3445 18.691 11.0244C19.724 13.8234 19.3798 17.1021 19.3798 17.1021C19.3798 15.4228 16.7972 13.7432 16.7972 13.7432C16.7972 13.7432 15.494 16.3739 13.6978 18.5416C10.7212 22.1335 10.1635 28.0048 13.3238 31.9765H19.3798C17.7978 30.8025 15.1832 26.3289 18.4307 22.8435C18.7237 22.9116 19.4561 23.9322 19.4561 23.9322L21.6539 19.9173C21.6539 19.9173 24.5114 22.435 24.6577 24.2725L26.2695 22.2991C26.2695 22.2991 29.7726 26.8547 25.5785 31.9765H31.5186C36.9424 25.4988 31.6911 16.3024 26.3533 13.9833Z" fill="black"/>
</svg>
