<svg width="16" height="16" viewBox="0 0 16 16" fill="none" xmlns="http://www.w3.org/2000/svg">
<g clip-path="url(#clip0_3002_49474)">
<path d="M12.9251 2.74414H3.05273V11.7229H12.9251V2.74414Z" fill="white"/>
<path fill-rule="evenodd" clip-rule="evenodd" d="M15.9826 7.99913C15.9826 12.4116 12.4057 15.9885 7.99327 15.9885C3.58086 15.9885 0.00390625 12.4116 0.00390625 7.99913C0.00390625 3.58672 3.58086 0.00976562 7.99327 0.00976562C12.4057 0.00976562 15.9826 3.58672 15.9826 7.99913ZM5.72931 11.1785H4.1788C3.85299 11.1785 3.69206 11.1785 3.59393 11.1157C3.48794 11.047 3.42317 10.9332 3.41532 10.8075C3.40943 10.6918 3.48991 10.5504 3.65084 10.2678L7.47925 3.51971C7.64215 3.23316 7.72458 3.08988 7.8286 3.03689C7.94047 2.97998 8.07394 2.97998 8.18581 3.03689C8.28983 3.08988 8.37227 3.23316 8.53516 3.51971L9.3222 4.89358L9.32621 4.90059C9.50216 5.20801 9.59138 5.3639 9.63034 5.52752C9.67351 5.70613 9.67351 5.89454 9.63034 6.07315C9.59109 6.23801 9.50277 6.39503 9.32416 6.70709L7.31319 10.2619L7.30799 10.271C7.13088 10.581 7.04113 10.7381 6.91674 10.8566C6.78131 10.9861 6.61841 11.0803 6.4398 11.1334C6.2769 11.1785 6.09437 11.1785 5.72931 11.1785ZM9.64486 11.1785H11.8666C12.1943 11.1785 12.3592 11.1785 12.4574 11.1138C12.5634 11.0451 12.6301 10.9292 12.636 10.8037C12.6417 10.6917 12.5629 10.5558 12.4087 10.2896C12.4034 10.2806 12.3981 10.2713 12.3926 10.262L11.2798 8.35817L11.2671 8.33673C11.1107 8.07229 11.0318 7.93874 10.9304 7.88713C10.8186 7.8302 10.687 7.8302 10.5752 7.88713C10.4731 7.94012 10.3907 8.07947 10.2278 8.36013L9.11886 10.2639L9.11507 10.2705C8.95274 10.5507 8.87161 10.6907 8.87746 10.8056C8.88531 10.9313 8.95008 11.047 9.05606 11.1157C9.15224 11.1785 9.3171 11.1785 9.64486 11.1785Z" fill="#E84142"/>
</g>
<defs>
<clipPath id="clip0_3002_49474">
<rect width="15.9894" height="16" fill="white"/>
</clipPath>
</defs>
</svg>
