<svg width="19" height="20" viewBox="0 0 19 20" fill="none" xmlns="http://www.w3.org/2000/svg">
<g id="copy-07">
<path id="Icon" d="M8.31315 2.0862C7.77874 2.09344 7.45791 2.12438 7.1985 2.25656C6.90058 2.40836 6.65836 2.65058 6.50656 2.9485C6.37438 3.20791 6.34344 3.52874 6.3362 4.06315M15.4382 2.0862C15.9726 2.09344 16.2934 2.12438 16.5528 2.25656C16.8507 2.40836 17.0929 2.65058 17.2447 2.9485C17.3769 3.20791 17.4079 3.52873 17.4151 4.06314M17.4151 11.1881C17.4079 11.7226 17.3769 12.0434 17.2447 12.3028C17.0929 12.6007 16.8507 12.8429 16.5528 12.9947C16.2934 13.1269 15.9726 13.1579 15.4382 13.1651M17.4173 6.83398V8.41731M11.084 2.08398H12.6673M4.11732 17.9173H10.134C11.0207 17.9173 11.4641 17.9173 11.8028 17.7447C12.1007 17.5929 12.3429 17.3507 12.4947 17.0528C12.6673 16.7141 12.6673 16.2707 12.6673 15.384V9.36732C12.6673 8.48057 12.6673 8.03719 12.4947 7.6985C12.3429 7.40058 12.1007 7.15836 11.8028 7.00656C11.4641 6.83398 11.0207 6.83398 10.134 6.83398H4.11732C3.23057 6.83398 2.78719 6.83398 2.4485 7.00656C2.15058 7.15836 1.90836 7.40058 1.75656 7.6985C1.58398 8.03719 1.58398 8.48057 1.58398 9.36732V15.384C1.58398 16.2707 1.58398 16.7141 1.75656 17.0528C1.90836 17.3507 2.15058 17.5929 2.4485 17.7447C2.78719 17.9173 3.23057 17.9173 4.11732 17.9173Z" stroke="white" stroke-width="1.58333" stroke-linecap="round" stroke-linejoin="round"/>
</g>
</svg>
