<svg width="7" height="15" viewBox="0 0 7 15" fill="#B3B5C0" xmlns="http://www.w3.org/2000/svg">
<path d="M2.8224 4.704C3.46267 4.704 3.91347 4.90653 4.1748 5.3116C4.4492 5.7036 4.5864 6.2328 4.5864 6.8992C4.5864 7.23893 4.55373 7.67013 4.4884 8.1928C4.42307 8.71547 4.34467 9.2708 4.2532 9.8588C4.1748 10.4468 4.0964 11.0021 4.018 11.5248C3.95267 12.0344 3.92 12.4525 3.92 12.7792C3.92 13.0013 3.9592 13.1581 4.0376 13.2496C4.116 13.3411 4.214 13.3868 4.3316 13.3868C4.50147 13.3868 4.6844 13.2692 4.8804 13.034C5.0764 12.7857 5.26587 12.348 5.4488 11.7208L6.3308 11.9756C6.27853 12.25 6.18053 12.5571 6.0368 12.8968C5.89307 13.2365 5.7036 13.5632 5.4684 13.8768C5.24627 14.1773 4.97187 14.4321 4.6452 14.6412C4.31853 14.8372 3.94613 14.9352 3.528 14.9352C2.84853 14.9352 2.3716 14.7523 2.0972 14.3864C1.8228 14.0205 1.6856 13.5044 1.6856 12.838C1.6856 12.3937 1.71827 11.9103 1.7836 11.3876C1.862 10.8519 1.94693 10.3161 2.0384 9.7804C2.12987 9.2316 2.20827 8.70893 2.2736 8.2124C2.33893 7.71587 2.3716 7.2716 2.3716 6.8796C2.3716 6.67053 2.33893 6.51373 2.2736 6.4092C2.20827 6.30467 2.11027 6.2524 1.9796 6.2524C1.8228 6.2524 1.6464 6.37653 1.4504 6.6248C1.2544 6.86 1.06493 7.2912 0.882 7.9184L0 7.6636C0.0392 7.40227 0.130667 7.10173 0.2744 6.762C0.418133 6.42227 0.6076 6.0956 0.8428 5.782C1.09107 5.4684 1.37853 5.2136 1.7052 5.0176C2.03187 4.80853 2.40427 4.704 2.8224 4.704ZM3.6652 0C4.04413 0 4.35773 0.1372 4.606 0.411601C4.85427 0.686 4.96533 1.03227 4.9392 1.4504C4.9392 1.85547 4.80853 2.1952 4.5472 2.4696C4.28587 2.744 3.9592 2.8812 3.5672 2.8812C3.1752 2.8812 2.85507 2.744 2.6068 2.4696C2.3716 2.1952 2.254 1.85547 2.254 1.4504C2.28013 1.03227 2.4304 0.686 2.7048 0.411601C2.9792 0.1372 3.29933 0 3.6652 0Z"/>
</svg>
